<?xml version="1.0" standalone="yes"?>
<svg width="340" height="433">
<path style="fill:#f2c121; stroke:none;" d="M0 0L0 427L14 427L11 425L8 416C15.8128 420.821 22.3133 426.036 32 425.917C56.4675 425.619 76.5163 395.667 82 375L81 375C74.9704 383.858 70.0899 397.132 62.6944 404.528C58.0895 409.133 52.2369 412.494 47 416.361C44.0077 418.571 33.0653 426.659 30 422C22.9575 421.905 13.5687 416.433 13 409C-1.05496 405.496 7.15382 388.786 1 380L10.0532 348.424L29 312L53 293L69 285L79 289C78.8927 292.606 83.19 298.289 87 299C85.9377 302.74 85.6926 306.13 90 307C90.0036 312.444 89.297 321.42 94 325C93.923 315.824 92.1277 299.166 85.7253 292.184C81.9894 288.11 73.8023 286.903 71.5887 281.891C69.0483 276.139 68.8354 268.172 67.4892 262C64.571 248.62 60.7424 235.435 58.0039 222C51.5259 190.219 47.8674 155.449 50.0895 123C51.4726 102.803 56.9445 82.134 57 62L60 63C58.4863 52.5128 72.7758 54.239 78.49 49.8604C82.4547 46.8223 82.6583 39.2122 85.2137 35C90.0477 27.032 98.1612 19.7875 106 15L105 25C109.458 22.761 112.255 18.9157 113 14L130 5L130 4L122 5L129 1C118.734 -3.30765 101.158 0 90 0L0 0z"/>
<path style="fill:#ddac05; stroke:none;" d="M122 5L164 5L164 6C156.425 6.60284 137.583 6.36926 142 16L145 12L146 12C151.794 18.0904 160.814 13.1614 167 10L166 7L175 8C162.83 0.381897 152.975 -0.00088501 139 0C133.095 0.000366211 125.692 -0.411469 122 5z"/>
<path style="fill:#f0bc1a; stroke:none;" d="M160 0L160 1C171.017 4.75873 184.906 11.0067 192.532 20.0394C199.633 28.451 202.818 39.9196 209.086 48.7724C213.38 54.8379 224.322 54.0198 229.941 59.2137C237.666 66.3543 237.559 89.734 238 100L239 100L239 0L160 0z"/>
<path style="fill:#ffffff; stroke:none;" d="M239 0L239 293L302 293L302 366L340 366L340 0L239 0z"/>
<path style="fill:#e7cd97; stroke:none;" d="M137 2L137 3L144 3L137 2z"/>
<path style="fill:#eec933; stroke:none;" d="M123 30L153 16L153 15L146 12L145 12L142 16C139.51 7.9881 144.066 9.21979 150 10C149.304 1.21011 143.382 1.95383 137.259 6.8866C129.902 12.8146 123.2 20.3602 123 30z"/>
<path style="fill:#fdf9ea; stroke:none;" d="M113 14C110.828 22.0567 104.159 27.7286 100.425 35C94.5229 46.4955 91.7174 60.2459 90 73L104 73C103.862 67.134 106.922 63.1068 108.505 57.7145C112.399 44.4547 114.002 31.458 123.325 20C128.802 13.269 136.567 9.38593 142 3L113 14z"/>
<path style="fill:#d8b372; stroke:none;" d="M150 6L150 7L164 6L150 6z"/>
<path style="fill:#f8dba8; stroke:none;" d="M149 8L149 9L153 8L149 8z"/>
<path style="fill:#c57f13; stroke:none;" d="M166 7L170 11L170 13C148.551 20.939 167.6 45.9938 183 48L178 51L177 58L181 55L181 62L179 61L180 74L181 74L181 70L182 70L182 73L188 73L189 52L190 55L191 55L194 45L191 42L188 42L190 30L194 31L194 30C183.817 25.8524 185.096 27.8775 186.598 36.0887C187.179 39.2652 186.161 41.1443 188 44L184 43C178.346 44.5894 171.871 43.1828 170 37L182 26L182 25L171 17C174.197 16.3114 173.746 14.9459 173 12L179 12C177.234 6.97879 170.654 7.58813 166 7z"/>
<path style="fill:#f9e082; stroke:none;" d="M109 58L110 58L112 55C110.113 46.7638 114.64 40.1978 118 33L119 36L120 36L135 9C118.812 15.9984 109 41.6424 109 58z"/>
<path style="fill:#f3deb8; stroke:none;" d="M164 14L170 13L170 11C166.577 10.4213 165.135 10.6027 164 14z"/>
<path style="fill:#b6681a; stroke:none;" d="M179 10L173 12L171 17L183 25L186 13L179 10z"/>
<path style="fill:#dfc096; stroke:none;" d="M153 15L160 25L161 25C161.063 19.6983 162.042 17.2537 167 15L167 14L164 12L153 15z"/>
<path style="fill:#90571c; stroke:none;" d="M185 14L185 19L196 28L197 28C195.697 21.4526 191.181 16.401 185 14z"/>
<path style="fill:#fce687; stroke:none;" d="M105 15C99.5256 25.0037 82.2355 47.1235 89 59L92 53L92 60L93 60C95.0199 44.9999 102.35 35.8343 109 23L105 25L105 15z"/>
<path style="fill:#f9efda; stroke:none;" d="M140 76C140.047 59.5132 147.365 47.9197 152.274 33.044C153.718 28.6686 160.675 27.3206 159.373 22.0641C157.204 13.3079 145.226 16.4973 140.285 20.3295C126.909 30.7042 120.688 42.9134 118.576 59C118.084 62.7431 116.151 72.238 119.603 74.9722C123.598 78.136 135.059 76 140 76z"/>
<path style="fill:#ffe7af; stroke:none;" d="M98 28L104 17C98.5843 17.8534 93.019 23.1684 98 28z"/>
<path style="fill:#c8914b; stroke:none;" d="M161 17L161 24L162 24L163 17L161 17z"/>
<path style="fill:#b18148; stroke:none;" d="M185 19L183 28L201 35C199.104 27.8842 192.123 20.8524 185 19z"/>
<path style="fill:#fadd5a; stroke:none;" d="M94 24C80.5479 37.4893 80.2305 49.0792 81 67L85 66C82.2968 58.9453 81.8946 46.0641 85.0355 39C87.2201 34.0867 94.1171 29.298 94 24z"/>
<path style="fill:#eac95d; stroke:none;" d="M160 25C146.58 35.4214 140.049 57.9663 140 75L143 75L147 64C146.463 59.1859 146.43 54.5199 151 52C150.522 48.6529 148.572 41.6487 153 41L160 25z"/>
<path style="fill:#ffe7a0; stroke:none;" d="M94 26C82.9279 37.6022 83 48.7325 83 64L89.814 36L94 26z"/>
<path style="fill:#fbfae5; stroke:none;" d="M95 26C88.7684 36.1434 86 45.1099 86 57L87 57L97 26L95 26z"/>
<path style="fill:#edb856; stroke:none;" d="M181 26L176 36C180.012 34.599 181.933 29.9496 183 26L181 26z"/>
<path style="fill:#f5d24b; stroke:none;" d="M123 28L122 28C117.633 43.762 105.011 57.2899 105 74L110 74L112 65C116.658 69.1913 116.995 74.0295 117 80L118 80L119.764 48.2855L133 27L123 28z"/>
<path style="fill:#e3be3e; stroke:none;" d="M160 29L153 41C149.255 41.471 150.213 45.0143 150.199 48.2593C150.156 58.0797 143.299 64.6246 143 74L153 74C153 62.3503 152.334 42.8577 168 42L160 29z"/>
<path style="fill:#dd9b08; stroke:none;" d="M182 29L179 36L175 34L170 37C171.107 43.6409 183.551 48.1947 184 39L176 40L176 39L185 33L182 29z"/>
<path style="fill:#8d521c; stroke:none;" d="M190 30L191 45L194 48L195 48C200.272 43.4412 204.314 46.8611 205 53L208 53L207 71L192.999 73.6705L180 74L180 75L185 79L202 76L202 73L221 74C213.932 81.6486 194.922 81.231 185 81.9105C179.455 82.2902 174.318 80.9236 170 85L170 86L168 96L175 97L171 109L180 115L185 116L186 116L189 114L190 122L187 121L194 132L194 133C190.016 138.265 193.447 143.454 198 147L199 142L204 147L213 146L211 148L211 149L215 150L215 151L205 152L211 155L210 168C222.863 171.745 204.366 187.016 199 185L198 185L197 185L193 187L189 196L190 196C196.592 183.992 218.712 197.822 222 187C216.074 183.721 219.333 175.723 216.772 170.054C214.994 166.118 211.702 164.498 211 160L228 179C230.091 182.191 232.806 182.093 235 179L236 179L234 192L233 192L234 184L233 184L228 201C234.209 204.799 231.261 212.929 231 219L232 219C239.55 178.927 243.23 133.499 237.428 93C235.602 80.2502 238.017 57.9012 222 55L222 56C226.37 59.023 229.994 61.691 225 66L226 62C208.328 55.2124 208.233 34.9594 190 30z"/>
<path style="fill:#fdeaa2; stroke:none;" d="M118 33C113.719 39.4978 111.07 46.162 111 54L112 54L118 33z"/>
<path style="fill:#e5b43d; stroke:none;" d="M182 33L181 35L179 40L184 39L184 45L188 44L187 33L182 33z"/>
<path style="fill:#c99e67; stroke:none;" d="M189 35L189 43C192.754 40.1062 194.489 36.6877 189 35z"/>
<path style="fill:#efc56d; stroke:none;" d="M176 39L176 40L182 36L176 39z"/>
<path style="fill:#f2cd99; stroke:none;" d="M171 39L174 41L171 39z"/>
<path style="fill:#e3c29b; stroke:none;" d="M177 75L171 67C173.612 61.804 176.311 53.0302 174.678 47.1435C173.192 41.7848 164.043 40.9997 160.13 43.7423C154.363 47.7837 149.471 69.8981 155.742 74.9722C160.085 78.4862 171.917 75.6424 177 75z"/>
<path style="fill:#b47a31; stroke:none;" d="M198 54L194 54L194 59L193 59L192 53L191 53L193 74L197 73L194 65L195 65L198 68L197 63L202 58L203 58L199 73L200 73L207 71L208 53L205 53C204.408 42.2201 191.193 44.5165 198 54z"/>
<path style="fill:#cc5a13; stroke:none;" d="M175 47L175 57L176 57C176.05 52.7924 176.266 50.2905 180 48L175 47z"/>
<path style="fill:#dfa54a; stroke:none;" d="M176 57L175 57L175 53L174 53L174 61L176 60C175.086 64.1711 173.697 66.6383 178 69L181 55L177 58L178 51L183 48C176.621 48.3534 176.021 51.114 176 57z"/>
<path style="fill:#cfa471; stroke:none;" d="M193 49L193 59L194 59L194 54L198 54L193 49z"/>
<path style="fill:#daa323; stroke:none;" d="M64 65C65.1047 59.1052 69.4139 56.9662 75 56L75 57L68 62C77.104 61.8995 79.9931 58.8827 80 50C75.3657 50.9565 53.39 57.2745 64 65z"/>
<path style="fill:#bc8919; stroke:none;" d="M210 51L210 52L222 56L210 51z"/>
<path style="fill:#fbe7b2; stroke:none;" d="M148 52L146 63L150 52L148 52z"/>
<path style="fill:#d1aa75; stroke:none;" d="M189 52C184.56 59.3083 187.978 65.9801 188 74L193 74L189 52z"/>
<path style="fill:#fbdd65; stroke:none;" d="M91 53L89 59L88 56L87 56L85 64L90 70L91 70L91 53z"/>
<path style="fill:#e0b33a; stroke:none;" d="M211 53L211 54L225 59L211 53z"/>
<path style="fill:#e7b064; stroke:none;" d="M158 54L158 63L159 63L158 54z"/>
<path style="fill:#cfa76e; stroke:none;" d="M205 54L206 59L207 59L207 54L205 54z"/>
<path style="fill:#a06c1c; stroke:none;" d="M59 58L61 62L62 62L65 56L59 58z"/>
<path style="fill:#e3b962; stroke:none;" d="M64 65L57 62L59 92C65.5065 91.3284 69.245 93.7914 73 99L74 99C74 91.4761 62.7542 83.1978 69 77C67.7891 76.0539 66.498 75.1516 65.4035 74.0625C55.5916 64.2991 73.5065 69.8311 76.5664 67.9321C79.1619 66.3212 78.9363 62.635 79 60L68 62L75 57C69.532 55.1036 63.7973 59.3599 64 65z"/>
<path style="fill:#b88019; stroke:none;" d="M216 56L226 62L225 66C234.787 60.5882 220.312 57.4445 216 56z"/>
<path style="fill:#cc8f4a; stroke:none;" d="M202 58L197 63L198 68L195 65L194 65L199 73L202 58z"/>
<path style="fill:#76461a; stroke:none;" d="M58 59L62 63L61 59L58 59z"/>
<path style="fill:#f9d037; stroke:none;" d="M79 59L77 70C83.1856 71.1654 93.307 73.1131 87 64L85 64L81 67L79 59z"/>
<path style="fill:#f0d59f; stroke:none;" d="M180 59L180 62L181 62L180 59z"/>
<path style="fill:#e4bc6d; stroke:none;" d="M153 60L155 76L153 60z"/>
<path style="fill:#ca6c29; stroke:none;" d="M175 60L171 67L180 74L175 60z"/>
<path style="fill:#c7a76f; stroke:none;" d="M213 60L213 64L215 64L215 60L213 60z"/>
<path style="fill:#f5cc2a; stroke:none;" d="M112 65L110 74L117 75L114 65L112 65z"/>
<path style="fill:#f6daa7; stroke:none;" d="M104 66L104 73L90 71C84.1604 71.6484 60.5115 62.2586 62 72L63 72L63 68L76 71C77.2186 78.0231 87.3134 77.1974 93 79L93 80L88 80L88 81L99 83L98 74L105 74L104 66z"/>
<path style="fill:#dead4a; stroke:none;" d="M57 67C51.4955 93.6833 50 120.773 50 148L51 148L54 144L54 139L52 141L51 141L51 127L52 127L54 132L61 97L64 98L64 91L59 92L57 67z"/>
<path style="fill:#f8ebd4; stroke:none;" d="M63 68C63.7779 77.7602 84.9909 79.6552 93 80L93 79C87.2413 76.5693 78.1882 77.9328 76 71L63 68z"/>
<path style="fill:#f4cb96; stroke:none;" d="M181 70L181 73L182 73L181 70z"/>
<path style="fill:#d99d08; stroke:none;" d="M138 76L138 78L157 79L157 76C148.865 73.6262 146.547 73.2613 138 76z"/>
<path style="fill:#be8b42; stroke:none;" d="M177 73L168 76L168 77L191 80L191 79L185 79L177 73z"/>
<path style="fill:#bb8237; stroke:none;" d="M202 73L202 76L191 78L191 79C194.995 79 201.987 80.7263 203 76L211 77L202 73z"/>
<path style="fill:#e3c186; stroke:none;" d="M65 74L65 75L69 77L66 78L74 99L73 99L73 97L72 97C72.9412 100.923 86.3054 119.247 90.3958 111.547C92.9747 106.692 88.0588 98.326 88 93L84 95L78 82L90 82C84.9401 76.657 72.1255 75.0523 65 74z"/>
<path style="fill:#e8b42d; stroke:none;" d="M98 74C98.5383 81.1166 103.372 83.4362 110 82L110 81L100 79L102 77L102 76L98 74z"/>
<path style="fill:#eab404; stroke:none;" d="M100 74L100 79L118 83C116.567 71.9809 109.312 74 100 74z"/>
<path style="fill:#ca9b61; stroke:none;" d="M203 76C198.536 82.8855 182.45 79.8318 176 78C180.56 86.6974 203.173 80.171 211 78.51C215.141 77.6313 218.639 77.8586 221 74L203 76z"/>
<path style="fill:#e5c99a; stroke:none;" d="M118 75C118.987 79.6077 128.748 79.9285 133 80L133 82L119 82L119 83L138 83L137 76L118 75z"/>
<path style="fill:#dfaf29; stroke:none;" d="M137 76C137.37 87.2591 150.127 83.6214 158 83L158 76L157 76L157 79C150.09 79 142.851 80.2247 137 76z"/>
<path style="fill:#d3b07b; stroke:none;" d="M158 76L158 83L166 83L166 82L160 79L171 79L170 83L178 82C174.663 75.6341 164.314 76.0007 158 76z"/>
<path style="fill:#d6b285; stroke:none;" d="M181 76L181 79L184 79L184 76L181 76z"/>
<path style="fill:#f5e5cd; stroke:none;" d="M118 78L118 82L133 82L133 80L118 78z"/>
<path style="fill:#e6d4b4; stroke:none;" d="M160 79C162.79 82.9983 169.214 84.3645 171 79L160 79z"/>
<path style="fill:#daae60; stroke:none;" d="M99 80C95.7264 85.0449 83.5669 82.3932 78 82L84 95L88 93C88.0249 100.279 95.8307 115.329 83 111C84.8484 113.524 89.3344 116.651 89.2485 120.02C89.0016 129.696 65.1821 121.525 62.0895 116.812C57.7626 110.217 61.8119 103.69 63 97C52.9413 103.863 58.189 122.073 54 132L52 127L51 127L51 141L52 141L54 139L51.0934 157L53 193L65 200L63 185L71 190C70.9981 187.518 71.6153 183.697 69.9722 181.603C66.3027 176.926 60.2341 179.827 59 172L55 173L54 173L55 155L60 158L67 156L66 149L73 150L80 144L78 151L81 151L81 152L81 153L72 153L80 183L86 178L87 178L91 182L92 175L96 177L96 170L97 170L97 174L99 174L99 168L105 168L106 173L101 179L108 180L108 175L119 170L116 165L116 164C121.892 158.374 107.624 148.061 102 149L100 140L99 140L96 149L96 121C101.959 126.457 104.643 135.025 104 143L111 148C110.054 140.515 110.628 131.127 108.487 124.015C106.363 116.958 100.305 110.517 106 103L106 102L102 103L104 91C107.798 93.6057 113.314 92.5308 117 90L118 90L119 92L134 86C126.709 86.3179 118.199 91.1057 115 82L99 80z"/>
<path style="fill:#cf9d48; stroke:none;" d="M115 82C117 91.5932 127.106 86.5631 134 86L119 92L117 90L104 91L102 103L106 102L106 103C98.9965 109.12 106.655 118.842 108.487 125.004C110.576 132.031 109.636 140.655 111 148C106.97 144.596 103.178 141.612 102 149C109.731 148.726 113.567 155.059 117 161L118 161L117 154L125 155L125 152L121 149L126 150C123.529 146.162 118.523 145.135 116.434 140.946C109.821 127.686 129.014 118.467 132 107L124 105L135 103L129 99L124 101L124 96C132.818 95.2892 135.327 91.0081 138 83L115 82z"/>
<path style="fill:#c5821d; stroke:none;" d="M124 96L124 101L129 99L135 103L124 105C126.08 108.117 128.507 107.402 132 107L131 111C133.967 109.64 137.725 106.427 141.09 106.566C148.863 106.889 167.842 120.989 167.664 129.004C167.481 137.209 157.998 138.87 157 130C147.066 132.298 124.869 139.857 124 124L123 124C119.469 140.077 142.898 136.061 154 134L157 148L164 149L161 159L161 160L165 174L162 174C160.87 179.578 156.091 182.268 159 188L156 187L153 195L153 196L156 210L148 210L145 207L150 212L150 213L147 215L146 215C143.072 211.701 139.406 214.616 136 216L135 213L133 219L130 217L129 221L133 223L136 220C137.82 226.501 143.658 226.567 149 224L155 227C155.062 209.457 182.929 218.314 180 200C185.589 198.594 191.419 192.442 193 187L197 185L198 185L199 185L210 181L208 174L205 175C202.627 165.112 194.44 165.314 187 170C191.837 161.971 197.684 148.954 186 143L187 151L173 161L172 152L171 152L170 156L166 155L165 150C179.326 141.001 173.167 122.082 165 112L169 113L158 97L153 96C152.921 87.0329 156.571 87.238 164 84L138.613 84.0278L124 96z"/>
<path style="fill:#b3731a; stroke:none;" d="M153 96L158 97C156.393 104.771 165.439 106.971 169 113L165 112C172.642 124.81 178.054 137.614 165 150L166 155L170 156L171 152L172 152L173 161L187 151L186 143C197.091 151.433 191.076 160.223 187 170C195.089 166.38 201.261 165.343 205 175L208 174L210 180C215.524 177.165 217.554 169.383 210 168L211 155L205 152L215 151L215 150L211 149L211 148L213 146L204 147L199 142L198 147C193.826 142.474 190.859 138.987 194 133L194 132L187 121L190 122L189 114L186 116L185 116L180 115L171 109L175 97L168 96C169.748 92.9375 173.046 88.9151 170 86L171 83C160.841 83.0908 152.576 85.2396 153 96z"/>
<path style="fill:#bd9a65; stroke:none;" d="M64 92C64.3729 100.001 70.112 102.954 77 106C73.9488 100.356 70.8655 93.0483 64 92z"/>
<path style="fill:#49210f; stroke:none;" d="M218 93C216.824 96.4725 215.193 101.205 216.606 104.83C220.561 114.973 232.543 112.166 227.992 101.015C226.793 98.078 224.424 95.8099 223 93L218 93z"/>
<path style="fill:#683d18; stroke:none;" d="M214 113C219.536 113.33 228.264 117.392 230 123C235.427 119.083 231.428 109.519 230 104L229 104C228.706 113.026 222.18 112.461 217.593 105.714C215.416 102.511 216.718 98.5753 217 95C208.894 97.7892 212.415 103.044 208.44 108.625C205.518 112.727 198.943 115.248 199.248 121.004C200.023 135.625 212.248 117.868 214 113z"/>
<path style="fill:#7d471a; stroke:none;" d="M64 97C53.0979 115.771 70.8968 130.1 89 121L83 110L81 110C77.9317 113.1 75.1089 112.704 71 112L63 113L64 97z"/>
<path style="fill:#663416; stroke:none;" d="M64 100L63 113L71 112L81 112C78.0767 105.295 71.093 101.068 64 100z"/>
<path style="fill:#9b672b; stroke:none;" d="M149 133L149 132L135 129L129 133C125.932 126.789 124.795 118.006 134 114.5C138.025 112.967 143.908 117.095 145 112L159 118C152.785 109.633 142.508 103.057 132.989 109.84C127.658 113.638 118.368 127.53 127.228 132.81C132.471 135.935 143.04 133 149 133z"/>
<path style="fill:#85481a; stroke:none;" d="M145 112C142.473 115.556 137.958 113.027 134.015 114.349C125.771 117.113 123.904 127.087 129 133L135 129C143.301 131.069 148.507 132.692 157 130C157.361 136.536 163.085 140.302 166.971 132.956C173.298 120.998 152.498 114.892 145 112z"/>
<path style="fill:#a47642; stroke:none;" d="M88 116L89 121L82 124L82 125C87.53 124.819 92.0686 121.462 88 116z"/>
<path style="fill:#c19031; stroke:none;" d="M124 119C118.311 124.961 111.073 134.245 116.938 142.737C119.106 145.875 123.339 147.264 126 150L121 149L125 152L125 155L117 154L118 161C127.322 165.703 112.59 179.327 122 182L122 183L110 183L113 186L113 187L109 188L109 189L115 189L114 184L118 184C119.331 191.929 126.509 192.449 133 194L130 195L130 196L144 193L137 201L133 201L136 209C128.883 209.301 118.419 208.353 114 215L118 215L117 219L127 221L131 215L133 219L135 213L136 216L146 215L147 215L150 213L150 212L145 207L148 210L150 208L156 210L153 196L153 195C156.987 194.146 156 190.511 156 187L159 188L162 174L165 174L161 160L161 159L164 149L157 148L154 134C148.026 134.755 125.789 138.25 122.641 132.022C120.541 127.865 125.206 123.347 124 119z"/>
<path style="fill:#e2be7a; stroke:none;" d="M96 121L96 149L99 140L100 140L100 146C108.876 141.153 102.719 125.367 96 121z"/>
<path style="fill:#ad721b; stroke:none;" d="M52 143L51 154L52 154L52 143z"/>
<path style="fill:#daa234; stroke:none;" d="M79 144L73 150L66 149L67 156L60 158L55 155L54 173L55 173L59 172C59.7722 182.024 70.9592 178.444 71 190L63 185L65 200L54 193L56 214L57 214L57 211L74 210L72 205L76 208L72 197L90 212L114 209L114 211L136 209L133 201L137 201L144 193L121 196L106 187L113 187L113 186L110 183L122 183L122 182C112.774 177.508 129.295 164.149 118 161L116 164L116 165L119 170L108 175L108 180L101 179L106 173L105 168L99 168L99 174L97 174L97 170L96 170L96 177L92 175L91 182L87 178L86 178L85 182C87.7674 186.064 84.8567 190.711 81 193L83 183L79.4869 171L72 153C75.7744 153.886 78.7281 154.501 81 151L78 151L78 150L79 144z"/>
<path style="fill:#e9cb8f; stroke:none;" d="M85 161L82 160L85 162L86 170C94.6547 168.568 91.4991 158.324 91 152C86.3894 153.387 85.4144 156.436 85 161z"/>
<path style="fill:#e1c581; stroke:none;" d="M102 161L106 166L106 170L108 170L111 160L102 161z"/>
<path style="fill:#8f401a; stroke:none;" d="M211 160C211.386 165.021 214.879 166.668 216.772 171.019C219.058 176.27 215.671 184.899 222 187C218.381 194.105 204.316 189.13 197.001 190.238C185.383 191.999 177.288 211.208 182 221L178 219L184 231C179.383 230.611 175.639 231.263 173 227L169 233L178 235C172.861 241.637 163.267 240.424 156 243L159 246L151 242C145.906 242.123 143.009 243.098 141 248C154.305 254.049 165.839 262.897 164 278L167 273L171 273L169 275L171 278L168 278L168 282L173 284L171 286L172 291L184 286C179.427 295.384 177.243 300.6 168 306C168.489 311.894 166.456 319.72 174 321L176 333L170 330L174 333L171 339L174 342L172 344L172 345C177.032 346.464 177.063 349.356 178 354L175 355L175 356L179 356L179 357L174 374L176 379L181 381C186.396 379.402 189.126 383.263 191 388L192 386L193 386L194 392L170 396L170 398C182.043 397.624 208.619 395.624 214.181 383C216.566 377.586 211.035 373.3 208.431 369C204.193 362.004 201.269 353.215 201.019 345C200.612 331.648 209.256 323.765 212.583 312C216.637 297.666 216.303 281.655 220.125 267C224.415 250.551 229.359 233.914 231.134 217C231.655 212.035 234.322 202.849 228 201L233 184L234 184L233 192L234 192L236 179L235 179C232.272 181.446 230.663 181.528 228 179C221.568 180.261 220.536 161.542 211 160z"/>
<path style="fill:#eebe1d; stroke:none;" d="M238 162C238 207.39 218.509 248.533 215 293L239 293L239 202C239 190.58 242.408 172.504 238 162z"/>
<path style="fill:#83501d; stroke:none;" d="M135 179L138 165C130.582 166.158 128.638 174.779 135 179z"/>
<path style="fill:#572611; stroke:none;" d="M135 179C152.957 177.352 134.336 156.638 134.274 173.975C134.268 175.657 134.7 177.357 135 179z"/>
<path style="fill:#9a6426; stroke:none;" d="M140 165L140 166L143 175C145.805 170.869 144.907 166.55 140 165z"/>
<path style="fill:#d3a44c; stroke:none;" d="M145 167L143 183L140 183C139.182 193.585 128.929 187.076 122 187L122 190C131.04 191.151 136.001 191.994 145 189C145.078 181.955 149.713 173.221 145 167z"/>
<path style="fill:#5f2f14; stroke:none;" d="M82 190C86.1534 188.688 86.7724 186.142 87 182C82.8466 183.312 82.2276 185.858 82 190z"/>
<path style="fill:#bc7918; stroke:none;" d="M114 184L115 189L106 187L121 196L133 195L133 194C126.603 192.086 120.256 191.399 118 184L114 184z"/>
<path style="fill:#9b6526; stroke:none;" d="M81 187C81.0135 190.194 80.5971 192.271 84 193L81 187z"/>
<path style="fill:#5a2712; stroke:none;" d="M194.21 193.052C179.697 201.199 178.405 229.005 199.999 217.076C206.696 213.376 216.822 208.75 217.551 200.015C218.261 191.517 199.598 190.028 194.21 193.052z"/>
<path style="fill:#bb6518; stroke:none;" d="M188 193L180 200C181.162 218.34 155.014 209.106 155 227L149 224C143.318 226.055 138.756 226.043 136 220L133 220L133 223L129 221L131 215L127 221L117 219L118 215L114 215L119 210L114 211L114 209L90 212L72 197L76 208L72 205L74 210L57 211L67.6906 264L72.6026 284.276L93 293L91 297L91 298C93.9662 301.411 98.2866 303.971 100.392 308.019C113.829 333.852 102.824 369.216 108 397L169 399L169 398L149 397C151.127 386.948 151.368 372.407 161 366L160 362L163 356L168 358L167 354C169.921 352.088 169.69 350.304 169 347L162 351L165.614 326.09L165 307L159 310C160.048 304.812 161.23 299.36 155 298C157.024 293.952 158.289 288.658 155 288L156 281L150 281L147 287L146 284L142 280L145 279L146 272C136.858 269.298 124.265 273.817 116.113 270.258C108.5 266.933 119.012 256.147 123 254L128 244L128 243C118.326 239.343 111.721 232.191 101 233L101 232L112 228C112.901 232.184 115.693 230.334 118 228C123.455 243.405 152.113 235.079 164 232L166 225L161 219L177 223L184.466 202.17L188 193z"/>
<path style="fill:#a24e1a; stroke:none;" d="M178 211L177 223C172.066 218.841 167.205 219.215 161 219L166 225L164 232C150.392 234.032 125.919 243.492 118 228C115.446 229.604 113.94 230.595 112 228L110 230L101 232L101 233L128 243L128 244C124.149 246.448 122.616 249.449 123 254C118.745 255.4 107.969 266.84 115.229 270.258C123.173 273.997 136.896 269.833 146 272L145 279L142 280L147 287L150 281L156 281L155 288L155 298C160.772 300.128 159.42 304.74 159 310L165 307L165.282 326L162 351L169 347L167 354L168 358L163 356L160 362L161 366C151.239 370.421 149.657 387.666 149 397C161.396 400.664 182.37 397.168 194 392L193 386L192 386L191 388C189.777 383.352 186.177 377.57 181 381L176 379L174 374L179 357L179 356L175 356L175 355L178 354C177.68 349.021 177.496 345.877 172 345L172 344L174 342L171 339C174.288 338.597 173.728 335.987 174 333L170 330L176 333L174 321C167.093 318.862 169.038 311.847 168 306C177.572 302.056 180.766 295.484 184 286L172 291L173 284L168 282L168 278L171 278L171 273L167 273L164 278C166.895 263.897 154.756 251.812 141 248C143.581 243.78 146.067 242.271 151 242C152.366 245.884 155.184 245.907 159 246L156 243C162.855 241.178 174.306 242.125 178 235L169 233L173 227C174.958 231.869 179.411 230.821 184 231L178 219L182 221L180 211L178 211z"/>
<path style="fill:#783217; stroke:none;" d="M115 269L123 269C126.445 262.705 133.278 261.041 140 262C139.782 243.67 115.389 257.277 115 269z"/>
<path style="fill:#fedf7a; stroke:none;" d="M69 285L53 293C42.0452 292.954 37.9722 310.694 29 312L10.0532 347.576L1 380L9 404C8.64488 407.467 9.58562 408.409 13 409L13 415L14 415L18 410C-0.78826 385.113 9.42214 353.896 25.179 329.826C28.9492 324.067 29.8582 317.481 35.1042 312.59C41.1073 306.993 48.679 298.856 56 295.282C61.5451 292.574 67.2478 295.568 70 289C82.0174 298.296 90.3029 323.183 87.5324 338C85.4258 349.266 78.1247 360.813 78 372L79 372C81.4955 365.886 83.4046 355.423 90 353L94 326L90 307C86.025 305.771 86.2392 302.646 87 299L79 289L69 285z"/>
<path style="fill:#ffe597; stroke:none;" d="M70 289C68.0679 293.934 69.1783 297.494 75 297L72 289L70 289z"/>
<path style="fill:#79421b; stroke:none;" d="M86 291L92 297L93 293L86 291z"/>
<path style="fill:#481d0d; stroke:none;" d="M183 291C183 293.332 182.96 295.669 183.005 298.001C183.3 313.502 201.586 292.401 183 291z"/>
<path style="fill:#f9af34; stroke:none;" d="M31 411L31 415C54.8887 414.934 77.8729 384.126 76 362L80 364C87.4793 347.273 87.3674 334.319 85.1258 317C83.5472 304.805 75.0524 292.674 61 293.383C53.5252 293.761 49.6092 299.836 44.625 304.275C30.7118 316.667 13.3992 338.443 10.3364 357.996C7.98775 372.991 1.8334 419.602 31 411z"/>
<path style="fill:#fff100; stroke:none;" d="M215 293L215 295L240 295L240 296C213.133 298.36 197.718 329.659 202.376 354C207.421 380.365 232.639 397.71 259 393.561C267.748 392.184 275.979 388.477 282.996 383.1C290.952 377.004 297.502 366.991 299 357L300 357L300 382L302 382L302 293L215 293z"/>
<path style="fill:#e76408; stroke:none;" d="M88 295L93 312L94 312C93.934 306.022 92.431 299.214 88 295z"/>
<path style="fill:#e3ad13; stroke:none;" d="M214 295L214 300L215 300L214 295z"/>
<path style="fill:#000000; stroke:none;" d="M215 295L214 310C222.271 304.243 229.622 297.555 240 296L215 295M262 295L262 296C279.235 298.583 296.04 314.809 299 332L300 332L300 295L262 295z"/>
<path style="fill:#cc4513; stroke:none;" d="M91 298C93.3307 313.008 98.9656 328.447 95.4715 344C93.1716 354.237 89.2574 365.683 84.4151 375C80.7253 382.099 75.7143 387.978 74 396L75 396C88.292 371 109.227 343.694 98.8573 314C96.8362 308.213 95.6218 302.285 91 298z"/>
<path style="fill:#974c1d; stroke:none;" d="M95 303C97.4678 311.531 101.666 320.005 101.957 329C102.639 350.123 95.7135 374.304 102 395L108 395C102.666 372.851 108.106 348.566 105.285 326.001C104.39 318.848 102.78 305.334 95 303z"/>
<path style="fill:#e4af12; stroke:none;" d="M213 303L213 311L214 311L213 303z"/>
<path style="fill:#ed8c06; stroke:none;" d="M91 305L93.8264 334L80 381C86.2797 375.942 89.3015 365.627 91.321 358C95.9724 340.433 99.5625 322.255 91 305z"/>
<path style="fill:#231916; stroke:none;" d="M266 320L270 333L275 330L272 331L273 325C270.082 323.34 270.069 322.146 271 319L266 320z"/>
<path style="fill:#b7ab07; stroke:none;" d="M271.333 319.667L271.667 320.333L271.333 319.667z"/>
<path style="fill:#a49809; stroke:none;" d="M259 322L259 323L262 323L259 322z"/>
<path style="fill:#231916; stroke:none;" d="M256 324L260 337C269.996 334.915 265.83 321.202 256 324z"/>
<path style="fill:#a09409; stroke:none;" d="M271.667 324.333L272.333 324.667L271.667 324.333z"/>
<path style="fill:#665b0f; stroke:none;" d="M251 325L251 327L253 325L251 325z"/>
<path style="fill:#fff100; stroke:none;" d="M259 325L264 334C263.578 329.909 262.658 327.083 259 325z"/>
<path style="fill:#fcc81c; stroke:none;" d="M93 326L89 352L90 352C92.8583 345.228 95.9441 333.016 93 326z"/>
<path style="fill:#231916; stroke:none;" d="M252 326L253 332L246 327L252 340L250 333L257 339C256.785 334.307 255.962 328.915 252 326z"/>
<path style="fill:#867a0c; stroke:none;" d="M239 329L239 330L242 330L239 329z"/>
<path style="fill:#cabd05; stroke:none;" d="M252 329L253 332L252 329z"/>
<path style="fill:#231916; stroke:none;" d="M238.617 331.047C234.602 334.098 240.378 345.685 245.394 341.953C249.614 338.812 243.549 327.3 238.617 331.047z"/>
<path style="fill:#9e920a; stroke:none;" d="M266 330L266 334L267 334L266 330z"/>
<path style="fill:#91850b; stroke:none;" d="M275 331L276 332L275 331z"/>
<path style="fill:#695e0f; stroke:none;" d="M239.333 332.667L239.667 333.333L239.333 332.667z"/>
<path style="fill:#fff100; stroke:none;" d="M240 332L244 341L240 332z"/>
<path style="fill:#534811; stroke:none;" d="M229 335L232 334L229 335z"/>
<path style="fill:#beb106; stroke:none;" d="M250 333L252 337L250 333z"/>
<path style="fill:#baad07; stroke:none;" d="M270.667 333.333L271.333 333.667L270.667 333.333z"/>
<path style="fill:#231916; stroke:none;" d="M230 334L234 347L239 345L239 344L235 344L232 334L230 334z"/>
<path style="fill:#b8ac07; stroke:none;" d="M237.333 335.667L237.667 336.333L237.333 335.667z"/>
<path style="fill:#231916; stroke:none;" d="M281.6 336.086C277.302 338.966 282.355 351.255 287.397 347.914C291.686 345.072 286.475 332.819 281.6 336.086M224 350C240.389 346.582 216.034 327.347 221.697 343.995C222.386 346.022 223.23 348.003 224 350z"/>
<path style="fill:#b6a907; stroke:none;" d="M243.333 336.667L243.667 337.333L243.333 336.667z"/>
<path style="fill:#aca008; stroke:none;" d="M257.333 337.667L257.667 338.333L257.333 337.667z"/>
<path style="fill:#8a7e0c; stroke:none;" d="M279 337L279 340L280 340L279 337z"/>
<path style="fill:#fff100; stroke:none;" d="M282 337L285 347L286 347C285.903 342.858 285.628 339.407 282 337z"/>
<path style="fill:#bd910d; stroke:none;" d="M201 338L201 350L202 350L201 338z"/>
<path style="fill:#fdef00; stroke:none;" d="M223 338L224 342L225 342L225 338L223 338z"/>
<path style="fill:#231916; stroke:none;" d="M278 350L273 348C274.185 351.568 280.173 353.232 279.418 348.049C278.946 344.807 274.528 342.869 273 340L277 342C275.567 337.7 269.587 338.002 270.89 342.911C271.702 345.969 275.972 347.762 278 350z"/>
<path style="fill:#72660e; stroke:none;" d="M244.333 339.667L244.667 340.333L244.333 339.667z"/>
<path style="fill:#7d710d; stroke:none;" d="M250.667 340.333L251.333 340.667L250.667 340.333z"/>
<path style="fill:#786c0e; stroke:none;" d="M264 341L264 342L267 342L264 341z"/>
<path style="fill:#231916; stroke:none;" d="M269 353L268 354L264 352C265.65 354.537 271.492 355.866 270.248 351.046C269.528 348.254 265.803 346.137 264 344L268 345C267.231 341.41 261.222 340.705 261.222 345.028C261.222 348.579 266.674 350.957 269 353z"/>
<path style="fill:#74690e; stroke:none;" d="M225.667 343.333L226.333 343.667L225.667 343.333z"/>
<path style="fill:#b9ac07; stroke:none;" d="M235 343L235 344L239 344L235 343z"/>
<path style="fill:#6b5f0f; stroke:none;" d="M242 343L242 344L245 344L242 343z"/>
<path style="fill:#fddc9e; stroke:none;" d="M38 353L40 361L45 359L45 366L49 367C48.5306 361.323 48.8971 356.769 55 355L53 344L38 353z"/>
<path style="fill:#fff100; stroke:none;" d="M225 344L228 347L225 344z"/>
<path style="fill:#8e820b; stroke:none;" d="M230 344L230 347L231 347L230 344z"/>
<path style="fill:#231916; stroke:none;" d="M253 346L258 359L263 357L263 356C259.501 354.892 259.133 353.463 260 350C257.372 348.217 258.005 346.846 259 344L253 346z"/>
<path style="fill:#90840b; stroke:none;" d="M268 344L269 345L268 344z"/>
<path style="fill:#beb106; stroke:none;" d="M286 344L286 347L287 347L286 344z"/>
<path style="fill:#fbbb34; stroke:none;" d="M47 348L52 354L47 348z"/>
<path style="fill:#76381d; stroke:none;" d="M100 348C89.5215 378.704 68.7422 425.893 30 426L30 427C52.6713 427 74.8677 412.179 83 390L108 398L108 395L102 395L100.004 364L100 348z"/>
<path style="fill:#231916; stroke:none;" d="M244 349L250 362L249 357L254 361C253.917 353.997 251.862 347.215 244 349z"/>
<path style="fill:#94880b; stroke:none;" d="M277.333 348.667L277.667 349.333L277.333 348.667z"/>
<path style="fill:#96341a; stroke:none;" d="M97 350C91.2928 365.213 85.0243 380.539 75.304 393.826C70.5038 400.388 60.3732 406.769 59 415C77.8556 403.776 97.0926 371.875 99 350L97 350z"/>
<path style="fill:#bdb107; stroke:none;" d="M247.667 350.333L248.333 350.667L247.667 350.333z"/>
<path style="fill:#a79b09; stroke:none;" d="M260.333 350.667L260.667 351.333L260.333 350.667z"/>
<path style="fill:#615610; stroke:none;" d="M237 351L237 352L241 352L237 351z"/>
<path style="fill:#fff100; stroke:none;" d="M247 351L250 354L247 351z"/>
<path style="fill:#887c0c; stroke:none;" d="M252 351L252 354L253 354L252 351z"/>
<path style="fill:#8e820b; stroke:none;" d="M265 351L266 352L265 351z"/>
<path style="fill:#b2a608; stroke:none;" d="M234.333 352.667L234.667 353.333L234.333 352.667z"/>
<path style="fill:#231916; stroke:none;" d="M235 352L240 366L240 361C246.855 356.555 240.564 352.066 235 352z"/>
<path style="fill:#857a0c; stroke:none;" d="M258.333 352.667L258.667 353.333L258.333 352.667z"/>
<path style="fill:#8e820b; stroke:none;" d="M275 352L275 353L278 353L275 352z"/>
<path style="fill:#f9bb13; stroke:none;" d="M87 353L83 372L85 372L90 353L87 353z"/>
<path style="fill:#514611; stroke:none;" d="M237 355L240 354L237 355z"/>
<path style="fill:#fdce58; stroke:none;" d="M46 356L47 357L49 354L46 356z"/>
<path style="fill:#fed441; stroke:none;" d="M85 354L79 372L78 372L76 362L75 365C78.0769 369.061 76.8749 373.575 75 378L80 378L87 354L85 354z"/>
<path style="fill:#574c11; stroke:none;" d="M228 354L228 355L232 355L228 354z"/>
<path style="fill:#fff100; stroke:none;" d="M238 354L241 358L238 354z"/>
<path style="fill:#231916; stroke:none;" d="M234 366L229 365C230.68 367.583 236.463 368.851 235.248 363.995C234.461 360.847 230.529 358.884 229 356L233 358C231.341 355.45 225.558 354.153 226.89 358.954C227.745 362.033 231.879 363.839 234 366z"/>
<path style="fill:#93870b; stroke:none;" d="M232 355L233 356L232 355z"/>
<path style="fill:#796e0d; stroke:none;" d="M243 355L243 359L244 359L243 355z"/>
<path style="fill:#978b0a; stroke:none;" d="M261.667 355.333L262.333 355.667L261.667 355.333z"/>
<path style="fill:#564b11; stroke:none;" d="M265 355L265 356L269 356L265 355z"/>
<path style="fill:#b8880f; stroke:none;" d="M203.333 357.667L203.667 358.333L203.333 357.667z"/>
<path style="fill:#231916; stroke:none;" d="M218 358L222 371L228 370L228 369L224 369L225 363C221.165 361.376 222.593 360.031 224 357L218 358z"/>
<path style="fill:#70640e; stroke:none;" d="M249 357L249 359L251 357L249 357z"/>
<path style="fill:#000000; stroke:none;" d="M299 357L285 382C300.663 384.597 331.186 375.754 338.125 395.039C339.571 399.057 339 403.799 339 408C332.546 408.92 326.092 413.615 320 409L319 409L318 409L310 411L310 409L291 410L285 414L283 411L282 411L275 413L275 433L340 433L340 366L302 366L302 382L300 382L299 357z"/>
<path style="fill:#9a8e0a; stroke:none;" d="M239.667 358.333L240.333 358.667L239.667 358.333z"/>
<path style="fill:#8f830b; stroke:none;" d="M254 358L255 359L254 358z"/>
<path style="fill:#796e0d; stroke:none;" d="M250.333 360.667L250.667 361.333L250.333 360.667z"/>
<path style="fill:#635810; stroke:none;" d="M240.333 361.667L240.667 362.333L240.333 361.667z"/>
<path style="fill:#71650e; stroke:none;" d="M229.667 364.333L230.333 364.667L229.667 364.333z"/>
<path style="fill:#7e730d; stroke:none;" d="M233.333 364.667L233.667 365.333L233.333 364.667z"/>
<path style="fill:#95890b; stroke:none;" d="M224 368L224 369L228 369L224 368z"/>
<path style="fill:#857a0c; stroke:none;" d="M231 368L231 369L234 369L231 368z"/>
<path style="fill:#75690e; stroke:none;" d="M222.667 371.333L223.333 371.667L222.667 371.333z"/>
<path style="fill:#fedc6f; stroke:none;" d="M61 397L62 402C68.8003 399.749 76.908 383.554 79 377C69.6534 379.55 67.8374 390.931 61 397z"/>
<path style="fill:#4d5253; stroke:none;" d="M215 380C210.789 389.568 203.795 390.168 195 393.6C173.839 401.86 148.402 401 126 401L126 402C148.758 402 171.856 403.098 194 396.845C200.551 394.995 212.816 392.442 214 385L216 385C215.668 401.102 206.093 407.515 192 412.807C169.112 421.402 134.582 425.411 111 417.808C104.09 415.58 96.5483 414.202 90 411.019C85.9056 409.028 80.7669 403.934 76.0895 403.817C72.4434 403.726 69.29 408.707 66.9961 410.996C61.7449 416.236 55.7011 421.188 49 424.482C33.484 432.111 21.4783 421.67 8 416L11 425L16 426L15 433L17 433L17 427L19 427L19 433L20 433L20 428L21 428L21 433L22 433L22 429L23 429L23 433L26 430L27 433L55.9722 432.75L66 430L67 430L69 433L69 429L72 429L72 433L74 433L74 428L75 428L75 433L76 433L76 427L79 427L79 433L81 433L80 426L82 433L84 433L83 425C112.871 417.42 143.017 424.19 173.715 423.782C198.008 423.46 221.879 416.498 246 416L246 433L247 433L247 416C254.297 415.975 277.321 416.702 282 411L283 411L285 414L291 410L312 411L311 408L315 411L318 409L339 408C339 403.819 339.578 399.102 338.432 395.039C333.905 378.991 312.544 383.047 300 383.296C294.749 383.4 289.271 381.082 284 382.599C273.273 385.686 266.039 393.43 254 393.961C237.863 394.672 228.505 386.893 215 380z"/>
<path style="fill:#7c7c7c; stroke:none;" d="M326.667 384.333L327.333 384.667L326.667 384.333z"/>
<path style="fill:#fed752; stroke:none;" d="M3 385C3 388.354 4.37253 410.734 9 404L3 385z"/>
<path style="fill:#7da9a7; stroke:none;" d="M214 385L215 392L216 392L216 385L214 385z"/>
<path style="fill:#b1e9ed; stroke:none;" d="M185 401C189.663 402.466 190.398 405.584 189 410C200.619 409.468 214.347 401.56 215 389C206.35 391.877 191.256 394.428 185 401z"/>
<path style="fill:#0e2522; stroke:none;" d="M83 390C80.5919 394.53 76.0893 399.697 82 403L83 393L84 393L83 402L94 395L83 390z"/>
<path style="fill:#1f5357; stroke:none;" d="M83 393L82 403L78 399L77 399L75 403C85.2431 408.445 97.3012 413.044 109 414L109 413L100 410C103.225 404.595 105.233 399.756 112 399L112 398L93 393L83 402L83 393z"/>
<path style="fill:#35757a; stroke:none;" d="M214 394C210.378 400.977 204.099 405.029 197 408L197 409C203.382 407.862 216.841 402.309 214 394z"/>
<path style="fill:#896941; stroke:none;" d="M108 397L108 398C127.189 401.942 146.456 401.542 166 400L146 400L108 397z"/>
<path style="fill:#ffe7aa; stroke:none;" d="M62 398C54.9867 399.918 51.9729 407.184 46 411.031C38.9245 415.588 33.5999 414.472 25.9853 412.64C23.1398 411.955 18.4011 409.148 15.6227 411.215C10.2529 415.211 22.6491 419.968 25 420.483C39.1612 423.588 60.7974 415.151 62 398z"/>
<path style="fill:#4e8e91; stroke:none;" d="M100 410L109 413L109 414L85 408L85 409L101 414.819L115 416L122 415L122 416L118 417L118 418L157 418C156.89 408.731 150.625 410 143 410L143 408L152 407L152 406L122 408L117 404L117 402L126 402C114.628 397.095 104.889 398.144 100 410z"/>
<path style="fill:#76a295; stroke:none;" d="M182.667 399.333L183.333 399.667L182.667 399.333z"/>
<path style="fill:#8dcace; stroke:none;" d="M160 403L160 407L170 407L165 411L164 414L164 415L184 413L184 414L181 414L181 415C190.184 414.923 202.875 411.145 209 404L189 412L189 411L191 410L189 409C193.287 403.284 185.387 401.454 186 399L160 403z"/>
<path style="fill:#678d7f; stroke:none;" d="M165 401L165 402L171 402L165 401z"/>
<path style="fill:#fcd23a; stroke:none;" d="M57 408L64 402L57 408z"/>
<path style="fill:#7ebcbf; stroke:none;" d="M117 402L117 404L152 406L152 407L143 408L143 410L158 410L158 416L167 416L167 417L134 418L134 419L183 416L183 415L181 415L181 414L184 414L184 413L164 415L164 414L165 411L170 407L153 403.214L117 402z"/>
<path style="fill:#759680; stroke:none;" d="M136 402L136 403L161 406L161 402L136 402z"/>
<path style="fill:#61a0a2; stroke:none;" d="M122 405C123.012 409.725 130.017 407 134 407L134 406L122 405z"/>
<path style="fill:#818080; stroke:none;" d="M311 410L314 411C315.093 408.113 312.499 407.924 311 410z"/>
<path style="fill:#46878c; stroke:none;" d="M189 411L189 412L197 410L189 411z"/>
<path style="fill:#464646; stroke:none;" d="M312 409L314 411L314 409L312 409z"/>
<path style="fill:#367479; stroke:none;" d="M157 410L157 417L167 417L167 416L158 416L157 410z"/>
<path style="fill:#1f1f1f; stroke:none;" d="M320 410L320 411L333 411L320 410z"/>
<path style="fill:#fcca53; stroke:none;" d="M30 411L24 412L24 413L30 411z"/>
<path style="fill:#44868c; stroke:none;" d="M185 412L185 413L188 413L185 412z"/>
<path style="fill:#d36a11; stroke:none;" d="M53 418L59 413L53 418z"/>
<path style="fill:#000000; stroke:none;" d="M271 413L247 416L247 433L273 433L273 413L271 413z"/>
<path style="fill:#888888; stroke:none;" d="M273 413L273 433L275 433L275 413L273 413z"/>
<path style="fill:#1a5257; stroke:none;" d="M111 414L111 415L115 415L111 414z"/>
<path style="fill:#252525; stroke:none;" d="M256 414L256 415L265 415L256 414z"/>
<path style="fill:#a7441b; stroke:none;" d="M46 422L46 423L59 416L46 422z"/>
<path style="fill:#456e71; stroke:none;" d="M105 415L105 416C121.015 422.328 139.09 421 156 421L156 419L105 415z"/>
<path style="fill:#6facac; stroke:none;" d="M109 415L109 416L121 417L109 415z"/>
<path style="fill:#215b60; stroke:none;" d="M116 415L116 416L122 416L116 415z"/>
<path style="fill:#306a6d; stroke:none;" d="M124 416L124 417L132 417L124 416z"/>
<path style="fill:#787878; stroke:none;" d="M239 416L239 433L240 433L239 416z"/>
<path style="fill:#000000; stroke:none;" d="M240 416L240 433L242 433L242 416L240 416z"/>
<path style="fill:#838383; stroke:none;" d="M242 416L242 433L246 433L246 416L242 416z"/>
<path style="fill:#000000; stroke:none;" d="M234 417L234 418L239 418L234 417z"/>
<path style="fill:#e6e6ea; stroke:none;" d="M8 418L9 419L8 418z"/>
<path style="fill:#c86014; stroke:none;" d="M36 425L36 426L53 419L36 425z"/>
<path style="fill:#050505; stroke:none;" d="M229 418L229 419L233 419L229 418z"/>
<path style="fill:#e6b10b; stroke:none;" d="M156 426L156 427L239 427L239 418L201 422.83L156 426z"/>
<path style="fill:#b0c697; stroke:none;" d="M98 421L98 422L127 424C119.881 419.735 105.921 419.389 98 421z"/>
<path style="fill:#090909; stroke:none;" d="M220 419L220 420L226 420L220 419z"/>
<path style="fill:#131313; stroke:none;" d="M108 420L108 421L112 421L108 420z"/>
<path style="fill:#171717; stroke:none;" d="M214 420L214 421L218 421L214 420z"/>
<path style="fill:#fcd75c; stroke:none;" d="M25 421L25 422L30 422L35 423L25 421z"/>
<path style="fill:#1a1818; stroke:none;" d="M116 421L116 422L120 422L116 421z"/>
<path style="fill:#262626; stroke:none;" d="M205 421L205 422L211 422L205 421z"/>
<path style="fill:#ccc468; stroke:none;" d="M94 422L94 423C108.889 423.68 119.868 428.515 135 424L118 424.981L94 422z"/>
<path style="fill:#1f2828; stroke:none;" d="M124 422L124 423L131 423L124 422z"/>
<path style="fill:#1e3132; stroke:none;" d="M187 422L187 423L196 423L187 422z"/>
<path style="fill:#1b1b1b; stroke:none;" d="M198 422L198 423L202 423L198 422z"/>
<path style="fill:#000000; stroke:none;" d="M85 426L88 423L85 426z"/>
<path style="fill:#dcbb40; stroke:none;" d="M83 425C87.4346 430.075 105.381 427 112 427C102.439 421.263 92.9547 424.508 83 425z"/>
<path style="fill:#302f2f; stroke:none;" d="M138 423L138 424L170 424L138 423z"/>
<path style="fill:#dbbb36; stroke:none;" d="M123 426L123 427L173 425C160.476 419.745 136.139 423.559 123 426z"/>
<path style="fill:#000000; stroke:none;" d="M14 425L14 433L15 433L14 425z"/>
<path style="fill:#f2c021; stroke:none;" d="M15 426L16 427L15 426z"/>
<path style="fill:#e9b327; stroke:none;" d="M80.6667 426.333L81.3333 426.667L80.6667 426.333z"/>
<path style="fill:#ffffff; stroke:none;" d="M0 427L0 433L8 433L8 427L0 427z"/>
<path style="fill:#000000; stroke:none;" d="M8 427L8 433L12 433L12 427L8 427z"/>
<path style="fill:#787878; stroke:none;" d="M12 427L12 433L13 433L12 427z"/>
<path style="fill:#252525; stroke:none;" d="M13 427L13 433L14 433L13 427z"/>
<path style="fill:#242121; stroke:none;" d="M17 427L17 433L18 433L17 427z"/>
<path style="fill:#7d8b8b; stroke:none;" d="M18 427L18 433L19 433L18 427z"/>
<path style="fill:#808080; stroke:none;" d="M76 427L76 433L77 433L76 427z"/>
<path style="fill:#000000; stroke:none;" d="M77 427L77 433L79 433L79 427L77 427M81 427L81 433L82 433L81 427M84 427L84 433L88 433L88 427L84 427z"/>
<path style="fill:#4c4c4c; stroke:none;" d="M88 427L88 433L89 433L88 427z"/>
<path style="fill:#878787; stroke:none;" d="M89 427L89 433L90 433L89 427z"/>
<path style="fill:#000000; stroke:none;" d="M90 427L90 433L93 433L93 427L90 427z"/>
<path style="fill:#393939; stroke:none;" d="M93 427L93 433L94 433L93 427z"/>
<path style="fill:#969696; stroke:none;" d="M94 427L94 433L95 433L94 427z"/>
<path style="fill:#606060; stroke:none;" d="M95 427L95 433L96 433L95 427z"/>
<path style="fill:#0a0a0a; stroke:none;" d="M96 427L96 433L98 433L98 427L96 427z"/>
<path style="fill:#888888; stroke:none;" d="M98 427L98 433L100 433L100 427L98 427z"/>
<path style="fill:#080808; stroke:none;" d="M100 427L100 433L101 433L100 427z"/>
<path style="fill:#696969; stroke:none;" d="M101 427L101 433L102 433L101 427z"/>
<path style="fill:#353535; stroke:none;" d="M102 427L102 433L103 433L102 427z"/>
<path style="fill:#000000; stroke:none;" d="M103 427L103 433L104 433L103 427z"/>
<path style="fill:#007d7d; stroke:none;" d="M104 427L104 433L105 433L104 427z"/>
<path style="fill:#31f3f3; stroke:none;" d="M105 427L105 433L106 433L105 427z"/>
<path style="fill:#806565; stroke:none;" d="M106 427L106 433L107 433L106 427z"/>
<path style="fill:#303030; stroke:none;" d="M107 427L107 433L108 433L107 427z"/>
<path style="fill:#000000; stroke:none;" d="M108 427L108 433L112 433L112 427L108 427z"/>
<path style="fill:#706a6a; stroke:none;" d="M112 427L112 433L115 433L115 427L112 427z"/>
<path style="fill:#193a3a; stroke:none;" d="M115 427L115 433L116 433L115 427z"/>
<path style="fill:#000000; stroke:none;" d="M116 427L116 433L120 433L120 427L116 427z"/>
<path style="fill:#008080; stroke:none;" d="M120 427L120 433L121 433L120 427z"/>
<path style="fill:#6b6b6b; stroke:none;" d="M121 427L121 433L124 433L124 427L121 427z"/>
<path style="fill:#252525; stroke:none;" d="M124 427L124 433L125 433L124 427z"/>
<path style="fill:#000000; stroke:none;" d="M125 427L125 433L131 433L131 427L125 427z"/>
<path style="fill:#008080; stroke:none;" d="M131 427L131 433L132 433L131 427z"/>
<path style="fill:#325959; stroke:none;" d="M132 427L132 433L138 433L138 427L132 427z"/>
<path style="fill:#000000; stroke:none;" d="M138 427L138 433L170 433L170 427L138 427z"/>
<path style="fill:#322e2e; stroke:none;" d="M170 427L170 433L171 433L170 427z"/>
<path style="fill:#2d5968; stroke:none;" d="M171 427L171 433L173 433L173 427L171 427z"/>
<path style="fill:#555555; stroke:none;" d="M173 427L173 433L184 433L184 427L173 427z"/>
<path style="fill:#818181; stroke:none;" d="M184 427L184 433L187 433L187 427L184 427z"/>
<path style="fill:#000000; stroke:none;" d="M187 427L187 433L196 433L196 427L187 427z"/>
<path style="fill:#404040; stroke:none;" d="M196 427L196 433L198 433L198 427L196 427z"/>
<path style="fill:#000000; stroke:none;" d="M198 427L198 433L202 433L202 427L198 427z"/>
<path style="fill:#2b2b2b; stroke:none;" d="M202 427L202 433L203 433L202 427z"/>
<path style="fill:#585858; stroke:none;" d="M203 427L203 433L205 433L205 427L203 427z"/>
<path style="fill:#000000; stroke:none;" d="M205 427L205 433L211 433L211 427L205 427z"/>
<path style="fill:#606060; stroke:none;" d="M211 427L211 433L212 433L211 427z"/>
<path style="fill:#969696; stroke:none;" d="M212 427L212 433L213 433L212 427z"/>
<path style="fill:#393939; stroke:none;" d="M213 427L213 433L214 433L213 427z"/>
<path style="fill:#000000; stroke:none;" d="M214 427L214 433L218 433L218 427L214 427z"/>
<path style="fill:#535e5e; stroke:none;" d="M218 427L218 433L219 433L218 427z"/>
<path style="fill:#008080; stroke:none;" d="M219 427L219 433L220 433L219 427z"/>
<path style="fill:#000000; stroke:none;" d="M220 427L220 433L226 433L226 427L220 427z"/>
<path style="fill:#8a8a8a; stroke:none;" d="M226 427L226 433L229 433L229 427L226 427z"/>
<path style="fill:#000000; stroke:none;" d="M229 427L229 433L238 433L238 427L229 427z"/>
<path style="fill:#252525; stroke:none;" d="M238 427L238 433L239 433L238 427z"/>
<path style="fill:#020000; stroke:none;" d="M20 428L20 433L21 433L20 428z"/>
<path style="fill:#010101; stroke:none;" d="M74 428L74 433L75 433L74 428z"/>
<path style="fill:#000000; stroke:none;" d="M22 429L22 433L23 433L22 429M69 429L69 433L72 433L72 429L69 429z"/>
<path style="fill:#101010; stroke:none;" d="M25 430L25 433L27 433L27 430L25 430z"/>
<path style="fill:#030300; stroke:none;" d="M66 430L66 433L67 433L66 430z"/>
<path style="fill:#161616; stroke:none;" d="M29 431L29 433L33 433L33 431L29 431z"/>
<path style="fill:#3c9595; stroke:none;" d="M59.3333 431.667L59.6667 432.333L59.3333 431.667z"/>
<path style="fill:#242424; stroke:none;" d="M60 431L60 433L63 433L63 431L60 431z"/>
<path style="fill:#182121; stroke:none;" d="M36 432L36 433L55 433L36 432z"/>
</svg>
