<?xml version="1.0" standalone="yes"?>
<svg width="217" height="56">
<path style="fill:#ffffff; stroke:none;" d="M0 0L0 56L52 54L52 51L56 51L56 56L59 56L63 50L63 56L65 56L65 40L94 40L94 41L87 41L87 48L94 48L94 49L89 49L89 56L101 56L100 40L123 40L121 47L121 48L121 49L131 51L131 52L123 52L123 56L135 56L136 49L136 48L136 47L134 40L144 40L144 44L143 44L143 41L137 41L140 43L140 44L137 44L139 56L150 56L150 54L141 54L141 50L150 52L150 40L162 40L162 50L155 50L155 44L160 44L160 41L152 41L152 52L162 52L162 56L165 56L165 40L170 40L170 41C166.579 43.989 168.677 48.2946 170 52L166 52L166 54L217 56L217 0L202 0L202 16L199 13L195 13L198 9L198 6L195 3L199 3L199 0L192 0L192 16L186 16C190.868 8.05273 189.109 0.11948 179 0L179 16L176 16L176 0L173 0L173 7L172 7C171.26 2.96378 170.202 0.722996 166 0L166 16L160 13L163 9L163 6L160 6L160 3L163 0L156 0L156 16L151 13L151 0L147 0L147 16L142 16C146.333 7.75347 143.254 0.0327148 134 0L134 16L126 16L126 0L123 0L123 7L122 7C121.26 2.96378 120.202 0.722992 116 0L116 16L111 16C112.817 12.2244 114.736 5.13041 111.258 1.60417C105.631 -4.10024 102.841 6.0201 103.314 9.99537C103.566 12.1159 104.258 14.0197 105 16L101 16L98 13L98 0L95 0L95 16L92 13L88 13L91 9L91 6L88 3L92 3L92 0L85 0L85 16L81 16L81 0L77 0L76 7L75 7C74.2046 3.3926 73.6429 1.1964 70 0L69 16L59 16L62 0L53 0L56 3L56 16L51 16L48 13L51 9L51 6L48 6L48 3L51 0L44 0L44 16L38 13L41 9L41 6L38 6L38 3L41 0L34 0L34 16L29 16L31 0L27 5L26 5L26 0C22.6787 1.09887 22.2626 2.59023 22 6L21 6C20.7374 2.59023 20.3213 1.09887 17 0L19 16L14 16C15.0103 11.2767 13.9807 8.73721 11 5L15 5C13.4835 -1.94963 5.72478 0 0 0z"/>
<path style="fill:#000000; stroke:none;" d="M14 0L15 5L11 5L14 16L19 16L17 0L14 0M20 0L21 6L22 6L23 0L20 0M26 0L26 5L27 5L28 0L26 0M31 0L29 16L34 16L34 0L31 0M41 0L38 3L38 6L41 6L41 9L38 9L38 13L44 16L44 0L41 0M51 0L48 3L48 6L51 6L51 9L48 9L48 13L51 16L56 16L56 3L51 0M62 0L59 3L59 16L69 16L70 0L62 0M73 0L75 7L76 7L77 0L73 0M81 0L81 16L85 16L85 0L81 0M92 0L88 3L91 6L91 9L88 9L88 13L95 16L95 0L92 0M98 0L98 13L101 16L105 16L105 0L98 0M111 0C113.136 5.86164 113.136 10.1384 111 16L116 16L116 0L111 0M120 0L122 7L123 7L123 0L120 0M126 0L126 16L134 16L134 0L126 0M142 0L142 16L147 16L147 0L142 0M151 0L151 13L156 16L156 0L151 0M163 0L160 3L160 6L163 6L163 9L160 9L160 13L166 16L166 0L163 0M170 0L172 7L173 7L173 0L170 0M176 0L176 16L179 16L179 0L176 0M186 0C188.881 6.17574 188.881 9.82425 186 16L192 16L192 0L186 0M199 0L195 3L198 6L198 9L195 9L195 13L202 16L202 0L199 0M10.3333 3.66667L10.6667 4.33333L10.3333 3.66667M108 3L108 13L109 13L108 3M138 3L138 7L139 7L140 3L138 3M183 3L183 13L184 13L183 3M72 8L72 16L78 16L78 10L77 10L77 14L72 8M119 9C119 12.3627 118.284 15.2037 122 16L119 9M138 9L140 13L138 9M169 9C169 12.3627 168.284 15.2037 172 16L169 9M10 10L10 13L11 13L10 10M24 10C22.8901 13.0588 22.431 15.2352 26 16L24 10M42 40L42 44L43 44L44 41L51 49L43 47L42 51L52 51L54 48C52.491 38.8345 63.797 41.2615 60 47L60 48C63.9871 47.1456 63 43.5105 63 40L42 40M65 40L65 56L89 56L89 49L94 49L94 48L87 48L87 41L94 41L65 40M100 40C100 45.0895 98.4017 52.7512 103 56L101 49L107 49L107 48L103 48L103 41L114 41L115 48L110 48L110 49L116 49L116 51L106 51L106 54L123 56L123 52L131 52L131 51L121 49L121 48L121 47L123 40L100 40M126 40L126 42L131 42L131 40L126 40M134 40L136 47L136 48L136 49C132.549 52.0625 135.173 55.3355 139 56C138.871 51.6185 135.762 46.7739 140 44L140 43L137 41L143 44L144 44L144 40L134 40M150 40L150 52L141 50L141 54L162 56L162 52L152 52L152 41L160 41L160 44L155 44L155 50L162 50L162 40L150 40M165 40L165 56L170 56L170 54L166 54L166 52L170 52L170 41L165 40z"/>
<path style="fill:#ffffff; stroke:none;" d="M68 41L68 50L80 50L80 48L71 48L71 47L80 47L80 45L71 45L71 43L80 43L80 41L68 41M103 41L103 48L107 48L107 49L101 49L103 56L115 56L115 54L106 54L106 51L116 51L116 49L110 49L110 48L115 48L114 41L103 41z"/>
<path style="fill:#000000; stroke:none;" d="M55 44L55 45L59 43L55 44M89 43L89 46L91 46L91 43L89 43M143 46L144 47L143 46M140.667 47.3333L141.333 47.6667L140.667 47.3333M59 56L63 56L63 50C59.6787 51.0989 59.2626 52.5902 59 56M52 51L52 54L42 54L42 56L56 56L56 51L52 51z"/>
<path style="fill:#ffffff; stroke:none;" d="M66 52L66 54L82 54L82 52L66 52z"/>
</svg>
