<?xml version="1.0" standalone="yes"?>
<svg width="213" height="82">
<path style="fill:#ffffff; stroke:none;" d="M0 0L0 82C7.10547 82 24.602 85.4841 27 77L31 77L31 82L34 82L38 76L38 82L41 82L41 66L53 66L53 82L55 82L55 66L72 66L72 82L74 82L74 74L80 76C77.0216 83.5964 90.918 84.4278 89 76C93.4568 75.0629 90.0766 70.6329 90 67L79 67L79 73L74 71L74 66L117 66L117 76L110 76L110 74L115 74L115 67L107 67L107 70L112 70L112 72L107 72L107 79L117 78L117 82L120 82L122 72L123 72C129.973 81.8196 133.477 61.2864 123.618 68.5455C122.322 69.4999 121.189 70.9138 120 72L120 66L133 66L133 76L125 76L125 82L135 82L135 66L143 66L141 73L141 74L141 75L152 77L152 78L143 78L143 82L155 82L155 66L165 66L165 70L163 67L157 67L157 69L161 69L161 70L157 70L159 82L171 82L171 80L162 80L163 72L165 78L167 78L167 66L168 66L168 78L170 78L170 66L182 66L182 76L175 76L175 70L181 70L181 67L173 67L173 78L182 78L182 82L185 82L185 66L201 66L201 78L186 78L186 80L213 82L213 0C209.426 0 202.455 -1.31071 199.781 1.60339C195.107 6.69582 199.512 14.0441 200.698 19.0895C202.346 26.1021 201 34.8044 201 42L165 42C169.868 34.0527 168.109 26.1195 158 26L158 42L152 39L155 35L155 32L152 32L152 29L155 26L148 26L148 42L143 42C147.181 34.1646 145.66 26.1142 136 26L136 42L132 42L132 26L129 26L129 31L128 31C127.272 27.6494 126.403 26.5875 123 26L123 42L117 39L120 35L120 32L117 32L117 29L120 26L113 26L113 42L107 39L107 26L104 26L104 42L99 42C102.619 34.1123 100.116 26.1077 91 26L91 42L83 42L83 39L79 39L82 35L82 32L79 29L83 29L83 26L76 26L76 42C70.6759 38.7428 72 31.5337 72 26C68.3133 27.1935 67.5955 29.2898 67 33L66 33C65.4045 29.2898 64.6867 27.1935 61 26C61 31.5337 62.3241 38.7428 57 42L57 26L53 26L53 42L48 39L48 26L44 26L44 42L9 42L9.45525 18L9.91898 1.56404L0 0z"/>
<path style="fill:#000000; stroke:none;" d="M10 0L9 42L44 42L44 26L48 26L48 39L53 42L53 26L57 26L57 42C62.896 40.2753 61 30.9731 61 26L66 33L67 33L72 26C72 30.9731 70.104 40.2753 76 42L76 26L83 26L83 29L79 29L82 32L82 35L79 35L79 39L83 39L83 42L91 42L91 26C100.22 26.2994 101.432 34.2539 99 42L104 42L104 26L107 26L107 39L113 42L113 26L120 26L117 29L117 32L120 32L120 35L117 35L117 39L123 42L123 26L128 31L129 31L129 26L132 26L132 42L136 42L136 26C145.837 26.3195 146.261 34.303 143 42L148 42L148 26L155 26L152 29L152 32L155 32L155 35L152 35L152 39L158 42L158 26C168.311 26.3349 168.645 34.1878 165 42L201 42L200 0L191 0L188 3L188 16L185 16L185 3L179 0L179 16L176 16L176 0L172 0C172 3.79208 173.446 11.5274 170.397 14.3773C162.997 21.2926 163 2.91117 163 0L159 0L161 16L156 13L155 13L155 16L151 16L151 0L145 3L145 6L148 6L148 9L145 9L145 16L141 16L141 0L135 3L135 6L138 6L138 9L135 9L138 16L131 16L131 0L127 0L123 16L120 16L120 0L113 0L117 16L113 13L110 13L110 16L106 16L109 0L102 0L104 16L100 16L99 11L98 11L98 16L95 16L95 0L90 0L92 6L86 3L86 13L89 12L87 7L92 7C91.8585 11.3558 87.4702 20.0217 83.3179 12.8511C80.9802 8.81409 82.7178 4.04482 84 0L74 0L71 3L71 6L74 6L74 9L71 9L74 16L67 16L67 0L64 0L64 16L60 16L60 0L55 3L55 16L52 16L52 3L48 0L44 3L44 6L47 6L47 9L44 9L47 16L40 16L40 0L34 3L34 6L37 6L37 9L34 9L37 16L30 16L30 0L27 0C26.8876 5.44622 27.1171 13.0105 22 16L21 9L20 9L19 16L10 0z"/>
<path style="fill:#ffffff; stroke:none;" d="M13 0C14.255 5.21111 13.1885 14.0714 19 16L20 9L21 9L22 16C27.5936 14.0331 26.9576 5.12334 27 0L24 0L24 5L23 5L22 0C18.4486 1.03883 18.2482 3.53047 18 7L17 7L17 0L13 0z"/>
<path style="fill:#000000; stroke:none;" d="M17 0L17 7L18 7L19 0L17 0M22 0L23 5L24 5L24 0L22 0z"/>
<path style="fill:#ffffff; stroke:none;" d="M30 0L30 16L37 16L34 13L37 9L37 6L34 6L34 3L37 0L30 0M40 0L40 16L47 16L44 13L47 9L47 6L44 6L44 3L47 0L40 0M49 0L52 3L52 16L55 16L58 0L49 0M60 0L60 16L64 16L64 0L60 0M67 0L67 16L74 16L71 13L74 9L74 6L71 6L71 3L74 0L67 0M92 7L87 7L89 12L88 13L87 13L86 13L86 3L88 6L92 6C89.3221 -3.92594 81.1099 1.56815 82.1929 9.99537C83.4805 20.0144 91.9095 14.6595 92 7M95 0L95 16L98 16L98 11L99 11L100 16L104 16C102.825 7.62815 106.033 0.130386 95 0M109 0L106 16L110 13L113 13L113 16L117 16C115.557 10.4241 115.734 1.16843 109 0M120 0L120 16L123 16C125.16 8.9989 134.213 0.168419 120 0M131 0L131 16L138 16L135 13L138 9L138 6L135 6L135 3L138 0L131 0M141 0L141 16L145 16L148 9L148 6L145 6L145 3L148 0L141 0M151 0L151 16L155 13L156 13L161 16C158.049 7.41719 162.918 0.0421219 151 0M163 0C163 2.64465 163.752 23.4208 170.972 14.3958C173.436 11.3156 172 3.75099 172 0L169 0L169 13L167 13L167 0L163 0z"/>
<path style="fill:#000000; stroke:none;" d="M167 0L167 13L169 13L169 0L167 0z"/>
<path style="fill:#ffffff; stroke:none;" d="M176 0L176 16L179 16L179 0L176 0M182 0L185 3L185 16L188 16L191 0L182 0z"/>
<path style="fill:#000000; stroke:none;" d="M98 3L98 7L100 7L100 3L98 3M123 3L123 9L124 9L123 3M155 3L155 7L156 7L155 3M111.333 8.66666L111.667 9.33334L111.333 8.66666M95 29L95 32L97 31L97 30L95 29M140 29L140 39L141 39L140 29M162 29L162 39L163 39L162 29M95 35L97 39L95 35M126 35C126 38.3627 125.284 41.2037 129 42L126 35M64 37L64 42L69 42L69 37L68 37L68 40L65 40L64 37M25 66L25 77L30 74L30 73C26.203 67.2615 37.509 64.8345 36 74L38 66L25 66M41 66L41 82L53 82L53 66L41 66M55 66L55 82L72 82L72 66L55 66M74 66L74 71L79 73L79 67L90 67L89 76L89 82L117 82L117 78L107 79L107 72L112 72L112 70L107 70L107 67L115 67L115 74L110 74L110 76L117 76L117 66L74 66M120 66L120 72C121.792 70.8923 123.289 68.9155 125.206 68.0671C131.872 65.1176 130.397 78.5975 123 72L122 72L120 82L125 82L125 76L133 76L133 66L120 66M135 66L135 82L143 82L143 78L152 78L152 77L141 75L141 74L141 73L143 66L135 66M146 66L146 68L152 68L152 66L146 66M155 66L155 82L159 82L157 70L161 70L161 69L157 69L157 67L165 70L165 66L155 66M167 66L167 78L165 78L163 72L162 80L182 82L182 78L173 78L173 67L181 67L181 70L175 70L175 76L182 76L182 66L170 66L170 78L168 78L167 66M185 66L185 82L201 82L201 80L186 80L186 78L201 78L201 66L185 66z"/>
<path style="fill:#ffffff; stroke:none;" d="M43 67L43 78L52 78L52 76L46 76L46 74L51 74L51 72L46 72L46 70L51 70L51 67L43 67M62 67L65 70L61 78L66 76L67 76L71 78L71 67L62 67M105 80L104 73L101 75C102.378 59.0825 89.6511 74.2147 95.6073 78.9699C97.788 80.711 102.342 79.8556 105 80M188 67L188 75L200 75L200 73L191 73L191 70L200 70L200 67L188 67z"/>
<path style="fill:#000000; stroke:none;" d="M31 69L35 71L31 69M81 69L81 70L87 70L81 69M98.3333 69.6667L98.6667 70.3333L98.3333 69.6667M126 69L125 70L126 73L129 70L126 69M160 73L160 74L163 74L160 73M74 74L74 82L80 82L80 76L74 74M97 75L96 76L100 78L97 75M34 82L38 82L38 76C34.6787 77.0989 34.2626 78.5902 34 82M27 77L25 82L31 82L31 77L27 77M82 78L82 80L87 80L87 78L82 78M127 78L127 80L133 80L133 78L127 78z"/>
</svg>
