<?xml version="1.0" standalone="yes"?>
<svg width="201" height="457">
<path style="fill:#5fb8cd; stroke:none;" d="M0 0L0 326L12 326L12 337L20 334L22 340C24.5291 335.327 27.3965 335.973 32 337L32 338L29 340L36 343L39 340C36.9239 346.144 42.7609 345.638 47 348L48 345L52 350L53 350C56.0782 347.14 59.7487 347.517 63 350L64 350L72 350C70.1758 331.798 57.6789 330.776 45 322.251C32.2046 313.647 23.1319 300.728 23 285L24 285L24 287L25 287C16.555 250.074 15.4374 211.904 11.8302 174C9.54209 149.956 5.60538 125.112 5.01466 101C4.54397 81.787 -8.4661 48.1193 17 42L17 43L8 48C19.5053 46.0201 19.3005 41.3703 26.3441 34.456C29.4169 31.4397 33.5016 30.2382 35 26C45.3801 25.5245 47.8949 18.6792 56.0903 14.652C66.4749 9.54907 78.7525 8.09991 88 1L61 0L0 0z"/>
<path style="fill:#e4f2eb; stroke:none;" d="M35 26C32.7253 29.8727 28.5476 31.2097 25.5725 34.456C18.978 41.6517 18.7351 45.0698 8 48L17 43L17 42C8.7494 43.2422 3.10578 47.8981 8 56L1 52L5 98L6 98C7.04332 91.4579 13.2568 91.3126 19 90.8472C24.9196 90.3676 35.3924 92.8546 40.9606 94.9908C47.1283 97.3569 50.6118 102.272 57 98L56 102L67 107L72 105L73 109L77 109L79 103L76 99L81 100L82 100C81.9806 94.3352 81.1575 88.2351 76 85L75 79L104 72L104 71L99 71L99 70L105 70L105 69L88 69C95.053 62.8665 110.173 67 119 67C123.835 67 128.929 68.153 131 63L128 62C132.915 57.397 133.461 54.5351 133 48L124 50L119 53L111 58L110 58L110 56L109 56L98 58C99.7819 49.674 95.0544 43.7768 107 43C108.87 39.5539 115.182 35.7147 111 32C112.161 25.8334 106.541 24.7776 104 20C109.976 19.5442 110.934 16.5608 111 11L99 6L100 3C87.6151 -1.01901 65.6473 7.94388 54.3002 15.1396C47.1745 19.6584 44.2953 25.1833 35 26z"/>
<path style="fill:#5bb3c9; stroke:none;" d="M92 0L92 1C118.069 9.55182 142.33 23.6242 165.961 37.0085C173.085 41.0435 177.381 49.3543 185 53C189.594 37.4582 186 16.2234 186 0L92 0z"/>
<path style="fill:#ffffff; stroke:none;" d="M186 0L186 326L175 326L175 385L201 386L201 0L186 0z"/>
<path style="fill:#97b6a8; stroke:none;" d="M99 4C101.509 8.63324 106.054 9.98001 111 11L111 10L99 4z"/>
<path style="fill:#d8d9b6; stroke:none;" d="M111 11C110.83 16.2262 109.421 19.1535 104 20L111 32C113.923 36.4397 108.37 38.8257 107 43C94.4586 43.3703 99.156 49.2212 98 58L110 56L110 58L111 58L111 56C115.36 58.9833 117.877 58.3968 119 53L124 50L136 46L136 45C127.313 41.9807 128.421 35.4615 123.15 29.5849C120.671 26.821 115.281 24.781 112 23L112 22L114 11L111 11z"/>
<path style="fill:#a8c8b6; stroke:none;" d="M114 12L112 22L112 23C116.443 24.7253 119.152 22.3969 123 20L121 15C128.199 20.5759 148.835 35.7511 141 46C144.495 59.1762 147.571 62.2301 133 66L134 71C131.217 71.4794 111.296 78.3059 119 80L117 82L115 87L113 95L117 94L117 95C115.202 95.8408 112.892 96.5692 115 98L115 99L112 100L114 103C111.524 104.309 110.863 105.376 114 106L114 107L107 112L111 114L112 123L105 124L105 125L109 125L109 126L106 128L111 128L108 131L108 132L114 132L111 136L112 140L116 139L116 145L113 146L116 150L112 150L114 154L118 153L119 160L122 160L122 167L117 168L121 173L121 178L115 179L117 186L117 187L111 189L111 197L104 196L104 197L106 198L103 199L106 203L98 227C99.0915 229.849 97.583 230.69 95 232L95 233L96 238L98 237L98 238L96 249L99 253L94 254L97 255L90 263C91.0244 266.603 92.8195 266.393 96 265L90 268C89.1932 271.873 87.9406 273.358 84 274L84 280L69 280L68 280L67 280L62 285L53 283L52 283L52 286L25 285C26.8138 290.598 32.0753 289.572 36.9961 290.633C43.9325 292.129 60.6792 300.931 64 290C72.3402 289.931 85.5153 286.433 91 295L104 291L105 278L109 272L112 273L106 240L110 238L108 221L113 221L111 205C115.262 202.641 118.071 199.801 116 195L119 192L123 192C121.916 186.731 123.575 183.847 129 183L130 171C133.91 170.806 134.747 168.5 136 165L134 165C136.656 158.133 144.533 141.734 137 136L137 135L140 134L139 123L134 122L134 119L134 118L139 117L135 106L144 103L142 101L141 97L146 82L145 78C149.59 74.8903 152.838 67.1684 146 65L146 64L148 57C157.083 63.9836 159.08 56.1175 169 56L169 46C162.694 43.6901 161.783 36.1546 156.871 31.8989C144.927 21.5502 129.692 14.3174 114 12z"/>
<path style="fill:#aba675; stroke:none;" d="M121 15L123 20L116 26C127.905 32.3732 126.932 45.8653 143 46C143.503 33.2766 132.241 20.9956 121 15z"/>
<path style="fill:#79a48d; stroke:none;" d="M160 35L172 57L168 60L168 61L172 61L171 67C165.951 68.6293 163.318 75.3871 161.268 80.0463C158.302 86.7853 154.714 92.1236 154.8 100C154.889 108.105 158.756 115.922 157 124L154 123C154 136.678 151.172 147.919 145.93 160.424C143.584 166.02 137.214 169.591 140 176L136 176L127 185L123 201L119 201L119 205L138 184L151 165L156.277 150.91L159 138L160 126L160 125L165 102L163 100C166.296 91.6531 160.434 78.826 170 73C170.649 69.3209 178.864 61.2828 173 60L173 59C175.858 58.7906 177 58.8264 177 56L181 55L179 53L180 48L160 35z"/>
<path style="fill:#cbe3be; stroke:none;" d="M132 47C133.717 53.8575 132.155 56.6144 128 62L131 63C122.965 76.0987 96.6019 57.7005 88 69L105 69L105 70L99 70L99 71L104 71L104 72L75 79L76 85C80.3466 89.1082 81.935 94.1236 82 100L81 100L76 99L79 103C75.2552 103.807 76.8932 105.904 77 109L73 109L72 105L67 107C64.6721 103.289 60.2726 101.949 56 102L57 98C50.0174 101.135 47.4728 96.6775 40.9606 94.6482C34.1536 92.527 24.0375 89.8579 17 90.9236C14.1474 91.3556 9.0047 91.244 6.98843 93.6026C1.39187 100.149 6.81098 117.351 7.71451 125C10.0157 144.481 10.4002 163.647 13.9244 183C16.0123 194.466 23.5078 204.902 36 204.921C76.7866 204.984 82.3692 157.383 65.5895 130C61.7288 123.7 58.78 117.619 52 114L52 121L47 120L47 127L62 132L58 135L58 136L62 138L62 139L60 141C66.4478 144.456 68.2403 150.603 63 156C72.2883 165.078 63.6096 194.92 48 189C44.4958 201.343 25.133 199.212 20.1173 188.891C16.6611 181.78 21.9569 174.118 19 167L21 167C20.0558 161.822 20.0622 156.941 25 154L23 137L27 139L27 126L30 126C26.0453 123.423 22.555 120.785 18 123L30 109C34.0296 111.917 36.0787 113.852 36 119L37 119L38 116L43 118L39 109L51 114C45.1701 102.043 24.5556 94.0346 12 94L12 93L22 92C28.8282 101.091 53.5232 99.5102 57 111L59 113L70 121L81 124C80.432 128.612 81.9886 132.185 87 132L90 135L89 139L95 136L109 138L107 135L111 128L106 128L109 126L109 125L105 125L105 124L112 123L111 114L107 112L114 107L114 106L111 106L114 103L115 99L115 98L113 97L117 95L117 94L113 95L116 92L115 87L119 80L116 79L134 71L133 66C136.225 65.3747 142.864 65.2745 144.954 62.4259C150.418 54.9779 139.042 45.3278 132 47z"/>
<path style="fill:#2d6f80; stroke:none;" d="M2 53L5 53L6 47L2 53z"/>
<path style="fill:#98b69f; stroke:none;" d="M169 47L169 56C159.117 56.035 157.371 61.8426 148 57L146 64L146 65C151.928 68.2156 148.885 74.1332 145 78L146 82L141 97L144 103L135 106L139 117L134 118L134 119L134 122L139 123L137 135L137 136C143.618 143.611 136.352 156.752 134 165L136 165L130 171L129 183C123.181 183.444 121.429 186.468 123 192L119 192L116 195C117.091 199.797 114.585 202.053 111 205L113 221L108 221L110 238L106 240L112 273L109 272L105 278L104 291C98.7318 291.23 94.0318 292.4 91 297L111 293L111 292L110 280L117 280L118 279L116 259L117 259L117 262L118 262L116 242C106.823 232.86 114.866 222.754 115 212L119 212L121 210L118 207L119 201L123 201L127 185C131.442 184.174 134.749 180.276 136 176L140 176C138.297 168.841 147.085 158.772 150.096 151.996C154.029 143.148 154 132.488 154 123L157 124C159.17 116.447 155.6 108.113 155.03 100.421C154.335 91.0518 162.65 71.4767 171 67L172 61L168 61L168 60L172 57L171 47L169 47z"/>
<path style="fill:#588978; stroke:none;" d="M180 50L179 53L181 53L181 55L177 56C178.473 65.3286 173.055 72.7475 172.17 82C169.758 107.201 166.46 135.116 159 159L162 157C168.929 156.655 171.407 139.769 172.789 134C177.468 114.47 182.178 90.939 183.01 70.9962C183.31 63.8029 185.514 55.803 180 50z"/>
<path style="fill:#4c959b; stroke:none;" d="M5 52L4 55L8 56L5 52z"/>
<path style="fill:#267d7b; stroke:none;" d="M185 52L182 53C184.33 64.3488 181.689 72.8196 180.286 84.0008C178.25 100.238 176.61 117.05 172.789 133C171.427 138.683 168.608 156.049 162 157L154 163L157 168L163 160L175 158L176 158L183.169 83L185 52z"/>
<path style="fill:#4eacc5; stroke:none;" d="M185 57C185 87.515 179.167 118.727 176.083 149C173.261 176.706 173.373 205.571 168.611 233C166.354 245.998 162.566 262.928 163.111 276C163.296 280.432 165.081 287.245 170 288C168.331 292.878 171.381 294.369 176 294L176 293L173 291L186 293L186 127L186 79L185 57z"/>
<path style="fill:#679985; stroke:none;" d="M173 59L173 60L176 60L170 73C161.732 75.4166 161.926 95.7362 165 102L160 125L160 126C165.586 138.019 149.743 153.229 151 165C156.404 162.924 160.018 162.566 159 156C164.437 154.835 163.202 138.088 164.25 133C168.169 113.978 170.239 94.3222 173.083 75C173.932 69.2348 177.893 65.3837 178 59L173 59z"/>
<path style="fill:#9dd3de; stroke:none;" d="M2 63L2 72L3 72L2 63z"/>
<path style="fill:#90cddb; stroke:none;" d="M3 76L3 84L4 84L3 76z"/>
<path style="fill:#a3c165; stroke:none;" d="M12 93L12 94C29.6045 94.1457 40.0259 106.746 54 115L45 106L45 105L51 106L22 92L12 93z"/>
<path style="fill:#5a872b; stroke:none;" d="M45 105L45 106L64 120C58.9563 113.925 53.2042 106.308 45 105z"/>
<path style="fill:#a3c3a6; stroke:none;" d="M51 106L59 113L57 111C56.3483 107.089 54.8644 106.3 51 106z"/>
<path style="fill:#dfedda; stroke:none;" d="M30 109L18 123C30.507 119.275 50.5182 143.68 62 132L47 127L47 120L52 121C51.9014 112.721 46.4247 110.759 39 109L43 118L38 116L37 119L36 119C36.7052 113.673 34.6954 111.348 30 109z"/>
<path style="fill:#86ad76; stroke:none;" d="M59 113L63 118L61 113L59 113z"/>
<path style="fill:#bcd6c2; stroke:none;" d="M61 113L63 119C66.5824 119.568 67.9433 120.508 69 124L74 124L77 128L77 129L75 130C76.8639 133.572 77.6905 137.346 82 138L83 154L87 154L86 158C88.9948 161.241 88.7658 163.666 85 166L83 175L85 178L81 187C74.9769 187.48 72.4178 193.608 71 199L67 198C66.5424 201.422 62.6477 200.156 60 202.111C48.9213 210.292 27.2889 210.845 19 198L18 198C20.0437 213.08 34.9113 212.342 47 211.031C51.9882 210.49 58.9438 212.848 61 207L74 209L75 209C82.394 206.694 82.8066 213.416 87 217L87 229L84 234L88 234L88 239L87 239L82 238L87 251L83 251L85 253L85 254L84 259L77 258L69 261L69 267L68 267C60.3209 261.415 55.6511 273.871 51 278C53.0887 285.108 55.133 285.111 62 285L67 280L68 280L69 280C72.5598 284.051 79.4487 280.554 84 280L84 274C88.2967 273.657 89.511 272.249 90 268L96 265C92.712 266.106 91.2867 266.5 90 263C94.6236 262.23 95.4265 259.057 97 255L94 255L94 254L99 253L96 249L98 237L96 238L96 237L95 233L95 232C97.6929 231.19 100.634 229.611 98 227L106 203L103 199C104.91 198.421 106.334 198.015 104 197L104 196L111 197L111 189L117 187L117 186L115 179L121 178L121 173L117 168L122 167L122 160L119 160L118 153L114 154L112 150L116 150L113 146L116 145L116 139L112 140L111 136L114 132C110.658 132.267 107.803 131.254 107 135L109 138L95 136L89 139L90 135L87 132C82.2333 131.861 81.1643 128.288 81 124L70 121L61 113z"/>
<path style="fill:#7f9e2d; stroke:none;" d="M54 114L66 129L67 129L66 119L54 114z"/>
<path style="fill:#82b292; stroke:none;" d="M66 119L70 130L81 148L78 173L81 172L81 176L84 156L84 155L82 138C78.5554 137.118 75.0485 132.42 77 129L77 128L74 124L69 124L68 119L66 119z"/>
<path style="fill:#4a762e; stroke:none;" d="M64 121L77.6744 152L75 181L76 181C81.0798 171.41 79.447 158.549 80 148C75.5549 142.746 77.3904 132.531 70 130C69.553 125.833 67.7182 122.977 64 121z"/>
<path style="fill:#a8c376; stroke:none;" d="M63 125L69 137L70 137L63 125z"/>
<path style="fill:#d2dc92; stroke:none;" d="M27 126L30 143L34 141L35 145L30 155L22 154L21 167L19 167C21.0754 174.141 16.1098 182.961 20.0424 189.772C25.3805 199.018 45.9538 202.106 48 189C63.3571 196.983 73.4084 163.521 63 156C69.1987 151.654 66.7806 143.187 60 141L62 139L62 138C53.7046 132.353 37.029 126.971 27 126z"/>
<path style="fill:#769e25; stroke:none;" d="M69 132L77 162L78 162C78 151.739 76.7916 139.584 69 132z"/>
<path style="fill:#dfeeda; stroke:none;" d="M23 137L25 155L30 155L35 145L34 141L30 143L23 137z"/>
<path style="fill:#a0bb5c; stroke:none;" d="M71 140L74 146L71 140z"/>
<path style="fill:#6e9862; stroke:none;" d="M77 140L78 148L79 148L77 140z"/>
<path style="fill:#a5c061; stroke:none;" d="M75 148L74 177L75 177L75 148z"/>
<path style="fill:#649261; stroke:none;" d="M80 148L79 151L80 148z"/>
<path style="fill:#9dbfa4; stroke:none;" d="M82 152L84 155L84 156L83.0077 170L76 187L81 187L85 178L83 175C86.5011 172.728 85.886 169.774 85 166C89.1682 164.323 89.7695 160.663 86 158L87 154L82 152z"/>
<path style="fill:#214820; stroke:none;" d="M174 155L163 160C157.528 172.02 140.311 176.515 137 190L130 192C128.776 197.26 126.3 200.583 121 202C121.956 207.463 120.911 211.943 117 216L119 220C111.58 222.077 114.915 227.63 113 233L113 234C120.758 240.828 116.083 256.633 127 260C125.059 251.805 119.24 243.328 119.022 235C118.5 215.03 131.93 198.687 144.29 184.781C150.183 178.151 159.05 168.838 168 167L174 155z"/>
<path style="fill:#419080; stroke:none;" d="M174 159L168 167C155.819 168.384 149.888 182.104 140 187L136 199C152.202 199 159.949 192.889 172 183L172 190L173 190L174 159z"/>
<path style="fill:#4b8d7d; stroke:none;" d="M153 163C147.552 168.017 139.027 176.4 138 184L131 192L137 190C139.377 183.829 143.564 177.212 150 175L153 163z"/>
<path style="fill:#306756; stroke:none;" d="M153 167L150 174L151 174L157 168L153 167z"/>
<path style="fill:#669147; stroke:none;" d="M79 172L76 181L75 181L75 177L73 177L72 185L76 182L75 187L76 187L81 172L79 172z"/>
<path style="fill:#9bd4d0; stroke:none;" d="M12 174L12 187L13 187L12 174z"/>
<path style="fill:#35715a; stroke:none;" d="M147 175L143 180L147 175z"/>
<path style="fill:#9db953; stroke:none;" d="M72 180L69 187C71.7253 185.147 72.965 183.272 72 180z"/>
<path style="fill:#729625; stroke:none;" d="M74 182L45 206C56.9686 204.207 73.7799 194.817 76 182L74 182z"/>
<path style="fill:#196844; stroke:none;" d="M170 183L165 189L165 190C169.908 196.38 166.853 204.067 165 211L169 211L172 183L170 183z"/>
<path style="fill:#d7e8da; stroke:none;" d="M13 186C13.0155 209.38 17.2776 232.702 18.9105 256C19.4897 264.263 18.3114 278.288 25.1242 284.235C31.7458 290.016 43.7355 286 52 286L51 278C57.1696 274.268 59.1063 263.058 68 267L69 267L69 261C72.4776 260.673 76.1289 262.065 77 258L84 259L83 251L87 251L82 238L87 239L88 239L88 234L84 234L87 229L87 217C83.8222 212.901 81.8503 205.513 75 209L74 209L61 207C57.7362 212.587 52.4187 210.117 47 210.684C38.5327 211.569 25.5859 213.766 20.125 204.79C16.741 199.228 16.2679 191.814 13 186z"/>
<path style="fill:#a2ce9a; stroke:none;" d="M14 186L21 201L22 200L14 186z"/>
<path style="fill:#9ec193; stroke:none;" d="M74 187C69.5497 196.772 55.5334 202.781 46 206L46 207C51.423 206.934 66.2749 203.709 67 198L71 199L76 187L74 187z"/>
<path style="fill:#46752a; stroke:none;" d="M139 189L130 203C132.994 200.405 139.914 192.965 139 189z"/>
<path style="fill:#527a29; stroke:none;" d="M135 218L135 219C129.674 220.853 120.322 233.27 128.564 237.84C131.321 239.368 137.012 235.539 140 235L140 231L143 228L146 230L150 229L153 232L159 220L153 220L153 219C168.321 216.111 167.565 203.162 167 190C158.642 191.895 142.398 198.264 136.224 204.34C132.598 207.907 130.08 214.807 135 218z"/>
<path style="fill:#107a5f; stroke:none;" d="M171 190L169 211L166 211L167 239L168 239L171.089 204L171 190z"/>
<path style="fill:#6fa573; stroke:none;" d="M133 259L134 247C120.123 244.806 125.931 223.811 135 219L135 218C127.239 210.31 139.142 204.521 143 199L136 199L140 192C125.315 199.193 118.324 229.792 123.139 244C125.326 250.454 126.107 256.215 133 259z"/>
<path style="fill:#a2be5a; stroke:none;" d="M59 197L63 194L59 197z"/>
<path style="fill:#90bc74; stroke:none;" d="M21 200C26.1847 209.39 37.3378 205.684 46 205L46 204C36.0052 204.206 30.3965 203.751 21 200z"/>
<path style="fill:#53882f; stroke:none;" d="M129 203C120.264 216.35 116.518 232.107 122.525 247C124.325 251.461 124.643 256.363 129 259C126.029 250.287 119.915 240.546 121.21 231C122.304 222.932 130.754 210.474 129 203z"/>
<path style="fill:#4c7f57; stroke:none;" d="M121 204L118 206L118 207L121 210L122 210L121 204z"/>
<path style="fill:#76a65a; stroke:none;" d="M32 206L32 207L46 207L32 206z"/>
<path style="fill:#609673; stroke:none;" d="M118 210L115 212L115 222L119 220L117 216C119.47 214.26 120.413 212.191 118 210z"/>
<path style="fill:#41896a; stroke:none;" d="M165 211C158.366 224.219 161.212 242.532 159.032 257C158.23 262.317 154.12 269.621 149 264C140.528 268.629 124.64 262.077 120.74 252.999C117.741 246.02 120.216 238.508 113 234L113 233L113 224L112 224C110.22 230.021 110.371 238.183 116 242C112.289 247.771 116.811 260.427 124 261C123.508 267.079 127.812 269.809 133 272L133 273L133 274L131 276L143 276L143 283C169.243 273.887 168.078 250.685 165.553 227C164.981 221.628 167.167 216.164 165 211z"/>
<path style="fill:#498149; stroke:none;" d="M153 219L153 220L159 220L150 239C150.144 242.569 147.464 245.728 147.818 249C148.228 252.794 147.501 261.725 149.218 264.847C152.48 270.775 157.782 263.701 158.711 260C162.237 245.967 159.66 231.03 163 217L153 219z"/>
<path style="fill:#679046; stroke:none;" d="M143 228L140 231L140 235C135.06 235.509 129.018 240.436 127 234L126 234C126.27 240.27 126.71 246.437 134 247L133 259L129 258C131.351 263.36 142.713 271.904 147.231 264.516C150.672 258.891 150.55 245.263 150 239L153 238L153 237L143 240L152 233L150 229L146 230L143 228z"/>
<path style="fill:#69a889; stroke:none;" d="M143 240C149.294 238.69 155.452 237.188 156 230L143 240z"/>
<path style="fill:#82bdad; stroke:none;" d="M116 259L118 279L117 280L110 280L111 292L111 293L91 297L91 292L64 290C58.3651 301.073 35.3691 290.184 26 289C31.3033 297.047 41.6833 296.669 50 298.455C67.3603 302.184 86.7138 303.359 103.999 300.656C108.44 299.962 111.57 296.672 116 296L115 293C118.971 292.149 120.79 285.827 121 282L125 282L126 274L123 275C123.929 269.293 119.425 263.409 116 259z"/>
<path style="fill:#67b8ae; stroke:none;" d="M118 259L123 275L126 274L125 282L121 282L115 293L116 296L104.996 300.182L82.1698 302.354L45 298C51.8946 305.244 73.3324 309.015 83.0748 308.567C90.835 308.21 99.9099 302.928 105 312C113.188 307.495 122.399 309.123 131 306.126C149.024 299.845 162.505 284.53 165 266L164 266C158.563 280.449 144.244 287.075 131 292L132 282L127 282L127 279L132 279L132 277L128 277L133 274L124 261L118 259z"/>
<path style="fill:#2e7144; stroke:none;" d="M142 272C145.243 277.3 153.66 276.839 156 271L142 272z"/>
<path style="fill:#5daa95; stroke:none;" d="M161 272L143 283L143 276L131 274L130 274L128 277L132 277L132 279L127 279L127 282L132 282L131 292C134.384 291.077 138.706 291.388 141.816 289.937C146.278 287.854 149.106 282.628 153.22 279.93C156.528 277.761 161.119 276.606 161 272z"/>
<path style="fill:#61b2c7; stroke:none;" d="M163 278C162.21 296.391 156.147 312.9 140 323L128.015 321.838L106 319L106 320L135 323C130.836 330.536 120.351 331.227 113 334L113 335L116 338L121 337C117.89 345.28 112.718 355.945 115 365L106 369L105 355L98 358L101 370L108 373L109 370L117 368L111 373L113 379L97 385L97 393L83 388L83 389L86 389L86 390L82 390L82 393C94.9788 394.024 120.537 400.247 121 381L122 381C124.136 389.07 126.342 394.723 117 398L117 399L123 399L118 402L118 409L110 415L117 416L122 414L120 410C133.321 406.418 126.119 399.148 126 389L129 390C129 385.841 137.096 388.758 140 389C152.097 390.008 163.321 394.541 175 397L175 326L186 326L186 293L173 291L176 293L176 294C171.782 294.13 168.736 292.558 170 288L168 286L163 278z"/>
<path style="fill:#97d0be; stroke:none;" d="M162 280C154.673 291.001 142.161 302.73 129 306.436C121.859 308.447 114.097 307.883 107 310L107 311C123.115 308.962 142.942 309.337 154.855 296.816C158.811 292.658 164.142 285.991 162 280z"/>
<path style="fill:#209f9f; stroke:none;" d="M23 285C23.0198 292.167 24.0705 300.474 29 306L28 297C33.94 302.086 44.0615 306.984 52 305L52 303C39.0396 299.321 31.9691 294.718 23 285z"/>
<path style="fill:#c2e4e8; stroke:none;" d="M161 288L144.715 304.157L103 313L106 315L102 319L106 319L106 318L104 317L117 317L117 318L115 318L115 319L135 321L135 320L128 320L127 311L146 308L141 318C152.696 315.787 164.886 300.797 161 288z"/>
<path style="fill:#3daaa0; stroke:none;" d="M30 294L30 295L52 303L51 306L60 310L90 312L90 315L106 315L103 314C106.141 306.65 97.5924 306.378 92.0394 306.224C81.9757 305.945 72.5658 307.735 62 305.097C51.1529 302.39 41.138 295.201 30 294z"/>
<path style="fill:#0d868c; stroke:none;" d="M28 297C28.8102 311.651 37.5822 318.989 52 319L52 318L47 317L46.5926 306.514L28 297z"/>
<path style="fill:#097175; stroke:none;" d="M47 306L47 317L55 319L56 311L50 311L50 310L64 312L64 318C70.7442 308.297 53.4965 306.001 47 306z"/>
<path style="fill:#f2f9fb; stroke:none;" d="M127 311L128 320C138.435 319.993 141.784 317.412 146 308L127 311z"/>
<path style="fill:#145756; stroke:none;" d="M50 310L50 311L56 311C52.3691 318.707 57.7133 318.79 64 318L64 312L50 310z"/>
<path style="fill:#93c9cd; stroke:none;" d="M62 309L62 310L73 312L62 309z"/>
<path style="fill:#72afbd; stroke:none;" d="M66 311L65 317L78 313L78 312L66 311z"/>
<path style="fill:#6196a3; stroke:none;" d="M76 311L76 312L78 312L78 313L73 313L73 314L76 315L76 316L71 317L71 318L84 316L76 311z"/>
<path style="fill:#3d8598; stroke:none;" d="M79 311L79 312C81.3093 312.687 85.4338 315.428 81 316L81 317C85.491 316.95 88.6634 316.729 90 312L79 311z"/>
<path style="fill:#acd4da; stroke:none;" d="M67 318L76 316C72.3779 313.529 68.501 313.478 67 318z"/>
<path style="fill:#83b8c2; stroke:none;" d="M88 315L88 317L103 317L88 315z"/>
<path style="fill:#2aa89e; stroke:none;" d="M37 316C46.139 327.225 63.5762 331.336 77 335L77 336L66 334L70 344L71 344L78 341L76 345L74 344L73 344L75 352L96 353L92 341C100.444 341 111.345 343.422 117 336L113 335L113 334C119.949 332.043 132.402 330.814 135 323L97 317.054L37 316z"/>
<path style="fill:#e8f5f8; stroke:none;" d="M104 317L104 318L117 318L104 317z"/>
<path style="fill:#8dcfd3; stroke:none;" d="M135 320L135 321L140 323L148 317L135 320z"/>
<path style="fill:#ffffff; stroke:none;" d="M0 326L0 457L3 457L3 386L12 385L12 326L0 326z"/>
<path style="fill:#096c74; stroke:none;" d="M64 331C67.1758 335.991 71.5058 335.996 77 336L64 331z"/>
<path style="fill:#79c5d6; stroke:none;" d="M12 337L12 407L36 393L42 393L42 391L47 392L46 390L54 391L54 390L51 390L51 389L59 390L69 379L74 363L73 352C82.5739 356.805 94.5643 355 105 355L106 369L115 365L115 359L112 359L112 358L112 342L112 341L105 341L107 353C98.6671 353 76.1366 356.938 73 347L72 347L72 350C68.9713 348.92 66.3712 347.295 64 350L63 350C60.4506 347.068 55.3823 346.848 53 350L52 350L48 345L47 348C43.1831 345.309 37.5385 345.993 39 340L36 343L29 340L32 338L32 337C27.5593 335.426 23.7549 334.717 22 340L20 334L12 337z"/>
<path style="fill:#a4dae3; stroke:none;" d="M109 342L112 359C117.299 357.45 116.942 348.75 117 344L113 344C115.395 340.881 117.027 339.662 121 340C119.664 333.796 112.377 340.78 109 342z"/>
<path style="fill:#ffffff; stroke:none;" d="M113 344C116.956 343.695 118.616 342.768 120 339L113 344z"/>
<path style="fill:#0c4249; stroke:none;" d="M74 345L78 341C75.0262 341.506 74.1436 341.961 74 345z"/>
<path style="fill:#54b1c5; stroke:none;" d="M92 341C92.0084 351.926 96.9977 353 107 353L105 341L92 341z"/>
<path style="fill:#215f6a; stroke:none;" d="M71 342L75 351L74 342L71 342z"/>
<path style="fill:#409bae; stroke:none;" d="M73 352L74 363L69 379L60 389L62 389L56 396L54 405L55 405L55 401L56 401C58.291 415.034 76.2089 399.605 83 398.279C87.819 397.337 93.1129 398.96 98 399L74 409C79.4395 409.925 88.2202 410.955 91 416L107.741 415.415L118 409L118 402L123 399L117 399L117 398C126.699 395.66 124.874 388.871 122 381L121 381C119.855 402.176 91.3072 394.275 78 394C76.5725 398.702 73.5386 398.946 69 399L71 383L74 384L81 384L80 378L72 380L80 374L80 373L73 367L107 373C106.271 369.597 104.194 370.013 101 370L98 358L100 355L73 352z"/>
<path style="fill:#255d6c; stroke:none;" d="M73 367L73 369L76 369L76 367L73 367z"/>
<path style="fill:#2c8ba0; stroke:none;" d="M75 369L80 373L80 374C75.5965 374.339 73.7257 375.98 72 380L80 378C81.4839 390.892 106.647 384.831 113 379C110.015 367.937 98.9046 373.922 91 372.529C85.3733 371.536 80.8674 368.407 75 369z"/>
<path style="fill:#e7f2f4; stroke:none;" d="M109 370L109 373C113.033 372.717 115.159 371.657 117 368L109 370z"/>
<path style="fill:#75b2c5; stroke:none;" d="M83 369L83 370C88.5908 372.806 93.9157 373.448 100 372L83 369z"/>
<path style="fill:#0f6a7b; stroke:none;" d="M80 375C82.6122 381.235 99.732 380.833 106 379L108 375L80 375z"/>
<path style="fill:#a8c4c6; stroke:none;" d="M68 380L68 382L70 382L70 380L68 380z"/>
<path style="fill:#2a6772; stroke:none;" d="M68 382L68 385L70 382L68 382z"/>
<path style="fill:#96c0ca; stroke:none;" d="M71 383L69 399C73.6554 398.984 77.128 399.225 78 394L87 394L87 393L82 393C82.6449 384.332 78.8487 382.361 71 383z"/>
<path style="fill:#66a0b1; stroke:none;" d="M81 386L88 386L88 384L81 386z"/>
<path style="fill:#000000; stroke:none;" d="M3 386L3 457L201 457L201 425L200 425C194.138 442.673 169.068 448.186 153 451.4C124.333 457.132 93.9256 457.854 65 453.573C46.9143 450.896 30.2647 444 12 444L5.14815 422L11.412 407L12 385L3 386z"/>
<path style="fill:#b0d4db; stroke:none;" d="M73 385L74 388C68.8156 391.735 77.9594 396.467 78 385L73 385z"/>
<path style="fill:#3491aa; stroke:none;" d="M82 385C82.7843 388.66 87.4805 389.751 91 390L91 386L82 385z"/>
<path style="fill:#abd2dc; stroke:none;" d="M88 385L88 386L91 386C91.1551 390.724 92.1104 392.619 97 393L97 385L88 385z"/>
<path style="fill:#000000; stroke:none;" d="M175 385L175 398C185.246 400.929 196.482 407.393 200 418L201 418L201 386L175 385z"/>
<path style="fill:#008080; stroke:none;" d="M56 388L56 389L59 389L56 388z"/>
<path style="fill:#10484d; stroke:none;" d="M128 388L128 389C138.636 394.207 150.889 393.086 161.424 399.55C183.793 413.275 169.528 430.905 150 436.572C115.99 446.441 78.4731 446.614 44 438.986C26.8342 435.188 8.75756 425.815 14 406C2.80757 414.074 2.51826 427.75 13.0154 436.671C25.1902 447.019 43.7371 450.21 59 452.753C90.1133 457.937 123.062 457.586 154 451.4C167.537 448.693 183.255 444.918 193.826 435.485C205.523 425.049 200.575 411.688 188.999 403.9C172.581 392.853 147.514 388.403 128 388z"/>
<path style="fill:#000000; stroke:none;" d="M134 388L134 389L137 389L134 388z"/>
<path style="fill:#005555; stroke:none;" d="M51 389L51 390L55 390L51 389z"/>
<path style="fill:#2e798c; stroke:none;" d="M52 398L45 401L41 400L44 406L39 409L39 410L55 410L55 409L49 408L49 407L52 407L56 396L62 389C56.9066 390.311 53.4187 392.843 52 398z"/>
<path style="fill:#d4e6e9; stroke:none;" d="M82 389L82 390L86 390L82 389z"/>
<path style="fill:#afdce5; stroke:none;" d="M126 389C126.037 399.503 132.44 405.306 120 410L120 411L124 411L123 416L138 414L138 413L127 413L126 409C131.955 407.373 132.325 403.462 133 398C137.299 399.708 141.2 402.688 136 406L136 407C140.318 406.281 141.102 404.071 142 400L126 389z"/>
<path style="fill:#000000; stroke:none;" d="M142.667 389.333L143.333 389.667L142.667 389.333M46 390L47 391L46 390z"/>
<path style="fill:#005555; stroke:none;" d="M47.6667 390.333L48.3333 390.667L47.6667 390.333z"/>
<path style="fill:#4292a7; stroke:none;" d="M36 393C29.5488 399.24 18.2982 398.207 13.7238 407.09C6.20862 421.684 22.3895 432.161 34 436.308C62.5466 446.503 92.5102 443.02 122 443L122 442L120 442L120 441L131 439L131 438C112.917 434.138 96.4922 434.662 78 434.079C71.6354 433.879 60.7036 434.394 56 430L53 432L53 433L56 433L56 434L48 435L48 436L62 439L42 436L42 435L46 435L46 434L34 432L36 430L36 429L27 425L55 429L55 428C49.0994 426.598 44.4951 424.736 45 418L42 418L43 414L30 418L29 412L21 413L21 409L34 410L33 407C37.4113 409.293 39.9724 408.801 44 406L41 400L45 401L52 398L58 391L36 393z"/>
<path style="fill:#3b9db2; stroke:none;" d="M129 390C133.985 396.926 146.583 398.284 148 407C153.783 407.94 158.973 408.422 163 413C169.312 409.482 164.383 404.101 159.829 401.313C151.385 396.143 138.667 391.924 129 390z"/>
<path style="fill:#000000; stroke:none;" d="M148.667 390.333L149.333 390.667L148.667 390.333M42 391L43 392L42 391M153.667 391.333L154.333 391.667L153.667 391.333z"/>
<path style="fill:#4dacc0; stroke:none;" d="M136 392L136 393C141.957 395.021 174.363 402.882 163 413L163 414C167.199 415.444 169.573 415.731 171 411L172 411L173 421C180.888 402.024 149.179 392.109 136 392z"/>
<path style="fill:#000000; stroke:none;" d="M158.667 392.333L159.333 392.667L158.667 392.333z"/>
<path style="fill:#b9dae0; stroke:none;" d="M86 394L86 395L108 395L86 394z"/>
<path style="fill:#000000; stroke:none;" d="M169.667 395.333L170.333 395.667L169.667 395.333z"/>
<path style="fill:#318ba0; stroke:none;" d="M66 406L67 411C78.6652 417.542 93.0173 417 106 417L106 416L91 416C89.2267 410.653 79.1719 409.515 74 409C81.0557 403.309 93.57 406.781 98 399C84.5041 398.721 78.24 399.908 66 406z"/>
<path style="fill:#cbe9ee; stroke:none;" d="M133 398C131.705 403.196 131.337 406.622 126 409L127 413L138 411L138 410L134 410C138.154 404.599 142.384 400.479 133 398z"/>
<path style="fill:#5dbabe; stroke:none;" d="M139 398L139 399L142 400C140.475 404.808 138.644 406.257 134 408L134 409L148 406C147.174 401.179 143.518 399.163 139 398z"/>
<path style="fill:#37525b; stroke:none;" d="M53 400L49 407L49 408L55 406L56 412L56 401L55 401L55 405L54 405L53 400z"/>
<path style="fill:#15515f; stroke:none;" d="M85 401L85 402L89 402L85 401z"/>
<path style="fill:#79a4b1; stroke:none;" d="M36 402C37.0791 405.807 39.9209 405.807 41 402L36 402z"/>
<path style="fill:#3a9681; stroke:none;" d="M142 402L142 405L145 405L145 402L142 402z"/>
<path style="fill:#000000; stroke:none;" d="M16 403L17 404L16 403z"/>
<path style="fill:#243234; stroke:none;" d="M54 406L57 411L54 406z"/>
<path style="fill:#2a7388; stroke:none;" d="M57 406C60.4866 410.72 64.133 412.826 70 413L70 412L67 411L68 408L57 406z"/>
<path style="fill:#b6d4df; stroke:none;" d="M136 408L136 409L145 406L136 408z"/>
<path style="fill:#ffffff; stroke:none;" d="M134 409L134 410L152 415C150.36 403.459 142.091 408.971 134 409z"/>
<path style="fill:#359090; stroke:none;" d="M149 406L155 416L149 406z"/>
<path style="fill:#448195; stroke:none;" d="M21 409L21 413L33 414L30 411L32 407L21 409z"/>
<path style="fill:#aecfda; stroke:none;" d="M33 407L33 409L35 409L35 407L33 407z"/>
<path style="fill:#1f3e46; stroke:none;" d="M58 408L63 416C57.8438 415.352 51.9382 414.488 47.2292 417.453C40.7781 421.514 47.4704 426.172 52 427L52 426C48.1433 423.573 48.0537 420.422 52 418L65 418L73 416L58 408z"/>
<path style="fill:#9ecacc; stroke:none;" d="M153 408L153 411L156 410L156 409L153 408z"/>
<path style="fill:#4d8596; stroke:none;" d="M154 408L154 409L162 412L154 408z"/>
<path style="fill:#235360; stroke:none;" d="M33 414L29 414L30 418L42 411C37.7428 408.452 34.1257 408.842 33 414z"/>
<path style="fill:#4ca0b3; stroke:none;" d="M48 409L48 410L50 410L50 411L39 412L39 413L43 414L42 418L47 418L47 417L45 416L46 414L53 416L52 412L56 411L48 409z"/>
<path style="fill:#96bfc5; stroke:none;" d="M30 410L33 413L34 410L30 410z"/>
<path style="fill:#9fd3d9; stroke:none;" d="M45 410L45 411L50 411L45 410z"/>
<path style="fill:#3d798c; stroke:none;" d="M58 410L52 412L53 416L63 416L58 410z"/>
<path style="fill:#cae2e6; stroke:none;" d="M154 410L155 416L153 413L152 413L147 414C149.899 420.133 149.128 421.429 146 427L152 427L152 428L135 432L135 433L160 431L160 430C156.612 429.571 152.401 428.094 156 425L153 424L158 414L160 414L164 420C160.697 414.954 160.733 411.074 154 410z"/>
<path style="fill:#132021; stroke:none;" d="M53 412L53 413L57 413L53 412z"/>
<path style="fill:#90ccda; stroke:none;" d="M122 411L113 417L113 418C118.88 417.98 122.71 417.359 124 411L122 411z"/>
<path style="fill:#71afbe; stroke:none;" d="M130 412L130 413C135.75 413 144.659 411.258 145 419C142.385 416.123 140.861 415.363 137 416L137 417L142 417C140.219 425.164 135.092 428.294 127 429L127 428C133.202 426.647 132.278 420.734 126.981 418.032C122.7 415.848 112.762 417.32 108 418L108 419L120 419L120 420C115.484 420.584 111.596 421.002 109 425L116 426L116 429L152 428L152 427L146 427C156.422 414.199 140.873 409.411 130 412z"/>
<path style="fill:#96c3cc; stroke:none;" d="M171 411C169.881 417.991 166.436 422.873 159 424L159 425L160 427L172 423L173 423L171 411z"/>
<path style="fill:#82bfc9; stroke:none;" d="M161 412C161.292 415.666 161.369 417.548 165 419L167 417L167 416L161 412z"/>
<path style="fill:#e9f3f6; stroke:none;" d="M121 416L121 417C126.936 417.447 136.123 424.633 127 428L127 429C135.42 428.615 140.795 425.722 142 417L129 416L129 415L144 415C139.981 410.424 126.367 414.773 121 416z"/>
<path style="fill:#96c7ce; stroke:none;" d="M46 414L45 416L45 417L52 416L46 414z"/>
<path style="fill:#0c2525; stroke:none;" d="M73 414L73 417L104 419L104 420L97 420L97 421L113 420L113 419L108 419L108 418L114 417L97 416.999L73 414z"/>
<path style="fill:#a4d1d9; stroke:none;" d="M139 414L139 415L145 419L145 414L139 414z"/>
<path style="fill:#ffffff; stroke:none;" d="M158 414L153 424C160.851 425.707 167.892 422.579 171 415C166.497 417.287 161.239 421.52 160 414L158 414z"/>
<path style="fill:#326f7f; stroke:none;" d="M66 415L76 418L66 415z"/>
<path style="fill:#1b5752; stroke:none;" d="M109 415L109 416L116 416L109 415z"/>
<path style="fill:#b0dce1; stroke:none;" d="M129 415L129 416L139 416L129 415z"/>
<path style="fill:#8facb9; stroke:none;" d="M65.6667 416.333L66.3333 416.667L65.6667 416.333z"/>
<path style="fill:#bedbe1; stroke:none;" d="M165 419L169 417L165 419z"/>
<path style="fill:#407888; stroke:none;" d="M52 418C45.3179 419.955 49.1403 425.656 54 427L52 424L59 423L64 419L52 418z"/>
<path style="fill:#dedfde; stroke:none;" d="M60 425L62 421L57 427C63.7961 426.43 65.875 423.305 68 417L60 425z"/>
<path style="fill:#175457; stroke:none;" d="M72 418L72 420L91 421L72 418z"/>
<path style="fill:#a5c1c4; stroke:none;" d="M27 418L30 420L27 418z"/>
<path style="fill:#b9d4d4; stroke:none;" d="M67 419L70 426L65 426C68.2973 431.086 78.1927 430.091 81 425L77 424L77 423L82 422L67 419z"/>
<path style="fill:#9bb6cc; stroke:none;" d="M60 420L62 422L60 425L64 419L60 420z"/>
<path style="fill:#409aac; stroke:none;" d="M85 419L85 420L93 420L85 419z"/>
<path style="fill:#256e75; stroke:none;" d="M91 420L91 421L104 420L91 420z"/>
<path style="fill:#e5edec; stroke:none;" d="M113 420L113 421L120 420L113 420z"/>
<path style="fill:#30717a; stroke:none;" d="M122 419L127 423L122 419z"/>
<path style="fill:#e3ebef; stroke:none;" d="M125.667 419.333L126.333 419.667L125.667 419.333z"/>
<path style="fill:#71b0b6; stroke:none;" d="M66 420C64.3111 425.04 61.8651 425.825 57 427L66 429L65 426L70 426L69 420L66 420z"/>
<path style="fill:#aad8d9; stroke:none;" d="M108 421L108 425L109 425L113 421L108 421z"/>
<path style="fill:#bee0e5; stroke:none;" d="M171 420L160 427L160 428C164.924 428.584 172.23 426.111 171 420z"/>
<path style="fill:#366e58; stroke:none;" d="M77 423L77 424L88 426C86.195 420.567 81.5796 421.296 77 423z"/>
<path style="fill:#339f90; stroke:none;" d="M85 421L88 426C83.7149 424.196 76.5973 428.345 82 429L82 430L76 433L102 432L102 431L97 431L97 428L101 428L101 427L89 426L95 423L95 421L85 421z"/>
<path style="fill:#91bfa4; stroke:none;" d="M89 424L89 425C93.0912 424.954 95.978 424.857 98 421L89 424z"/>
<path style="fill:#7ebaac; stroke:none;" d="M102 422L102 423L108 421L102 422z"/>
<path style="fill:#2d747d; stroke:none;" d="M118 421L118 425L120 428L126 428L126 424L118 421z"/>
<path style="fill:#193a3f; stroke:none;" d="M52 424L52 425L58 422L52 424z"/>
<path style="fill:#aecfcd; stroke:none;" d="M89 425L89 426L100 427L100 426L98 426L98 425L102 425L102 422L89 425z"/>
<path style="fill:#edf2ee; stroke:none;" d="M128.667 422.333L129.333 422.667L128.667 422.333z"/>
<path style="fill:#e8f2ee; stroke:none;" d="M101 423L102 425L98 425L98 426L108 425L108 423L101 423z"/>
<path style="fill:#508690; stroke:none;" d="M168 428L173 423L168 428z"/>
<path style="fill:#23616e; stroke:none;" d="M53 425L52 427L52 428L55 428L55 429L50 429L50 430L66 430L66 429L57 428L58 424L53 425z"/>
<path style="fill:#82b2bd; stroke:none;" d="M27 425C29.639 428.853 34.5869 429.71 39 429L27 425z"/>
<path style="fill:#72b9b4; stroke:none;" d="M101 428L97 428L97 429L112 429L112 428L106 428L108 425C105.086 425.093 101.477 424.807 101 428z"/>
<path style="fill:#478d8c; stroke:none;" d="M106 428L112 426L106 428z"/>
<path style="fill:#6fb4c4; stroke:none;" d="M153 426L160 430L160 431C155.438 431.617 150.63 432.244 149 437C155.775 435.428 163.413 432.351 168 427L160 428L161 425L153 426z"/>
<path style="fill:#9fced3; stroke:none;" d="M110 426L112 431L101 432L101 433C112.953 433.033 124.247 437.102 136 438.169C140.925 438.616 147.037 439.601 149 434L130 437L130 436L132 436L132 435L124 434L124 433L130 432L130 431L116 429L116 426L110 426z"/>
<path style="fill:#234c58; stroke:none;" d="M42 428L42 429L48 429L42 428z"/>
<path style="fill:#b3cfd7; stroke:none;" d="M38 429L38 431L47 431L38 429z"/>
<path style="fill:#81afba; stroke:none;" d="M45 429L45 430C46.9601 430.653 47.554 431 45 431L45 432L55 432L45 429z"/>
<path style="fill:#79b2b9; stroke:none;" d="M56 430C60.0202 435.571 68.2088 431.135 74 431L56 430z"/>
<path style="fill:#2a6f6a; stroke:none;" d="M69 429L69 430L74 430L74 431L67 431L67 432L82 430L69 429z"/>
<path style="fill:#97c6ca; stroke:none;" d="M89 429L89 430L94 430L89 429z"/>
<path style="fill:#e3eff2; stroke:none;" d="M97 429L97 430L112 431L112 429L97 429z"/>
<path style="fill:#f6fafc; stroke:none;" d="M121 429L121 430L130 431L130 432L124 433L124 434L144 436L135 433L135 432L145 430L121 429z"/>
<path style="fill:#244d54; stroke:none;" d="M34 430L34 432L56 434L34 430z"/>
<path style="fill:#78bcad; stroke:none;" d="M97 430L97 431L107 432L97 430z"/>
<path style="fill:#53909a; stroke:none;" d="M41 431L41 432L45 432L41 431z"/>
<path style="fill:#cde3e6; stroke:none;" d="M65.6667 432.333L66.3333 432.667L65.6667 432.333z"/>
<path style="fill:#81b4b8; stroke:none;" d="M67 432L67 433L76 433L67 432z"/>
<path style="fill:#245f6a; stroke:none;" d="M70 433L70 434L91 434L70 433z"/>
<path style="fill:#257279; stroke:none;" d="M99 433L99 434L109 434L99 433z"/>
<path style="fill:#c0dde2; stroke:none;" d="M80.6667 434.333L81.3333 434.667L80.6667 434.333z"/>
<path style="fill:#6dabbc; stroke:none;" d="M42 435L42 436L62 439L42 435z"/>
<path style="fill:#8bbdca; stroke:none;" d="M85 435L85 437L102 437L102 435L85 435z"/>
<path style="fill:#bddee4; stroke:none;" d="M130 436L130 437L141 437L130 436z"/>
<path style="fill:#7dc6d7; stroke:none;" d="M12 436L12 444L25 444L25 443L12 436z"/>
<path style="fill:#76b0be; stroke:none;" d="M120 441L120 442L139 440L139 438L120 441z"/>
<path style="fill:#7fb4b1; stroke:none;" d="M99 439L99 440L109 440L99 439z"/>
</svg>
