<?xml version="1.0" standalone="yes"?>
<svg width="209" height="56">
<path style="fill:#ffffff; stroke:none;" d="M0 0L0 56L61 56L60 49L64 56L76 56L76 54L67 54L67 51L77 51L77 49L71 49L71 48L76 48L75 41L64 41L64 48L68 48L68 49C61.996 48.5883 60.1742 45.8195 60 40L108 40L105 46L108 50L104 41L101 41L97 53L107 51L108 51L108 56L111 56L111 40L123 40L123 45L121 45L121 41L113 41L113 52L121 52L121 48L123 48L123 56L126 56L126 40L142 40L142 50L135 50L135 48L140 48L140 41L132 41L132 44L137 44L137 46L132 46L132 53L142 51L142 56L144 56L144 48L147 48L147 52L154 52L154 56L209 56L209 0L201 0L201 16L196 16L198 0L190 0L192 16L186 16L188 0L180 0L182 16C175.924 14.0811 175.46 5.63454 175 0C167.371 1.27227 169.872 11.2827 165 16L162 13L162 0L159 0L159 16C144.451 15.8277 156.565 0.172153 142 0L142 16L138 16L135 13L138 9L138 6L135 6L135 3L138 0L131 0L131 16L128 16L128 0C124.186 0.661278 123.43 2.25938 123 6L121 6C120.57 2.25938 119.814 0.661278 116 0L116 16L113 16L112 0C108.357 1.19641 107.795 3.3926 107 7L106 7L105 0L101 0L101 16L96 16L97 0L94 0L94 13L92 13L92 0L88 0L90 16L84 16C85.6219 10.3433 83.3874 7.412 80 3L85 5C83.6019 -3.37748 73.9878 1.6337 80 10L76 10L78 16L69 16L66 13L69 9L69 6L66 6L66 3L69 0L62 0L62 16L57 16C60.3323 8.10285 59.8908 0.117218 50 0L50 16L46 16L46 0L43 0L43 6L42 6L37 0L37 16L32 16C36.4585 -2.72709 20.5415 -2.72708 25 16L21 16L18 13L18 0L15 0L15 16L10 16C14.5961 5.98241 9.93654 0.00109482 0 0z"/>
<path style="fill:#000000; stroke:none;" d="M10 0L10 16L15 16L15 0L10 0M18 0L18 13L21 16L25 16L25 0L18 0M32 0L32 16L37 16L37 0L32 0M40 0L42 6L43 6L43 0L40 0M46 0L46 16L50 16L50 0L46 0M57 0L57 16L62 16L62 0L57 0M69 0L66 3L66 6L69 6L69 9L66 9L66 13L69 16L78 16L76 10L80 10L78 0L69 0M84 0L85 5L80 3C82.5715 7.78895 85.2235 10.2842 84 16L90 16L88 0L84 0M92 0L92 13L94 13L94 0L92 0M97 0L96 16L101 16L101 0L97 0M105 0L106 7L107 7L109 0L105 0M112 0L113 16L116 16L116 0L112 0M120 0L121 6L123 6L124 0L120 0M128 0L128 16L131 16L131 0L128 0M138 0L135 3L135 6L138 6L138 9L135 9L135 13L138 16L142 16L142 0L138 0M149 0C152.445 8.34801 146.517 15.9558 159 16L159 0L149 0M162 0L162 13L165 16L171 0L162 0M175 0C175.243 5.56548 175.504 14.8722 182 16L180 0L175 0M188 0L186 16L192 16C192 10.503 193.481 3.16658 188 0M198 0L196 16L201 16L201 0L198 0M28 3L28 13L29 13L28 3M53 3L53 13L54 13L53 3M145 3L145 7L147 7L147 3L145 3M172 7L172 10L173 10L172 7M109 8L105 14L105 10L104 10L104 16L110 16L109 8M119 9L119 16L125 16L125 9L124 9L123 14L121 14L119 9M80 10L82 13L80 10M40 11L42 16L40 11M145 11L147 16L145 11M171 13L171 16L174 16L174 13L171 13M60 40C60.0699 46.2208 61.5196 48.8034 68 49L68 48L64 48L64 41L75 41L76 48L71 48L71 49L77 49L77 51L67 51L67 54L108 56L108 51L107 51L106 53C102.754 50.4481 100.565 51.3117 97 53L101 41L104 41C104.049 45.1605 104.17 47.8881 108 50L105 46L108 45L108 40L60 40M111 40L111 56L123 56L123 48L121 48L121 52L113 52L113 41L121 41L121 45L123 45L123 40L111 40M126 40L126 56L142 56L142 51L132 53L132 46L137 46L137 44L132 44L132 41L140 41L140 48L135 48L135 50L142 50L142 40L126 40M144 40L144 46L147 46L147 42L154 42L154 40L144 40z"/>
<path style="fill:#ffffff; stroke:none;" d="M79 41L79 49L91 49L91 47L82 47L82 44L91 44L91 41L79 41z"/>
<path style="fill:#000000; stroke:none;" d="M116 44L116 50L118 50L118 44L116 44M150 44L150 50L151 50L150 44M144 48L144 56L154 56L154 52L147 52L147 48L144 48M60 49C60.1969 52.5691 60.4617 54.7568 64 56L60 49z"/>
<path style="fill:#ffffff; stroke:none;" d="M77 52L77 54L92 54L92 52L77 52z"/>
</svg>
