<?xml version="1.0" standalone="yes"?>
<svg width="350" height="377">
<path style="fill:#73c5d9; stroke:none;" d="M0 0L0 296L1 296C6.32287 283.215 13.9943 270.66 21.4205 259C24.1207 254.76 26.2081 248.385 31.0401 246.067C36.7444 243.331 46.5452 247.433 53 246.576C73.9547 243.792 95.5211 239.786 114 229C110.976 221.847 105.225 216.097 101.89 209C93.6763 191.526 91.8977 171.515 97.4383 153C102.901 134.745 117.827 125.908 127.001 110.675C132.915 100.855 133 86.0832 133 75L146 66C145.699 53.5744 128.296 57.4887 126.631 47.7801C125.841 43.1725 138.22 38.5102 141.656 40.2014C146.563 42.6164 145 51.5938 145 56L146 56C146 47.7159 141.8 26.3354 147.318 20.2245C156.284 10.2946 174.779 15.8938 180 0L0 0z"/>
<path style="fill:#61b9cc; stroke:none;" d="M179 4C197.236 -0.836761 208.614 11.3537 218.946 25.4244C221.861 29.3938 224.06 35.3735 228.44 37.9722C236.408 42.7002 252.433 32.148 255 48L261 48L260 45L263 46C260.629 41.833 256.577 40.6861 252 40L252 39C257.38 39.8065 266.279 42.2999 266.562 49.0038C266.828 55.3004 262.725 62.7204 261.615 69C259.478 81.0916 260.26 96.3794 264.478 107.961C267.124 115.225 274.812 120.289 279.7 126C288.818 136.653 296.703 150.688 297 165L298 165L298 0L208 0C201.31 0 181.448 -3.37589 179 4z"/>
<path style="fill:#ffffff; stroke:none;" d="M298 0L298 274L349 274L349 309L350 309L350 0L298 0z"/>
<path style="fill:#e0e6a3; stroke:none;" d="M143 57C148.134 64.1705 146.607 72.2903 156 76L155 64L172 72L173 62L173 61L161 61L161 60L171 60C168.978 53.7104 166.587 33.6607 171.728 28.6034C175.823 24.5737 185.792 25.506 190.996 24.1605C196.718 22.6813 199.024 17.73 203 14L203 13C188.055 -5.01971 181.104 6.65344 164 13.5216C158.275 15.8205 148.27 15.2463 145.603 22.044C141.525 32.4424 151.609 47.8813 143 57z"/>
<path style="fill:#adc168; stroke:none;" d="M190 1L190 2C196.201 6.33923 202.759 10.954 203 19L200 19C199.432 22.5824 198.492 23.9433 195 25L197 34L192 34L195 43L201 41L200 48C204.632 46.5138 206.26 41.6523 208.965 37.8449C211.329 34.5162 216.843 30.8576 217.627 26.8295C219.847 15.4213 198.541 3.70389 190 1z"/>
<path style="fill:#b4c152; stroke:none;" d="M201 14C194.819 28.2323 181.227 20.2986 171.742 28.0278C167.47 31.5093 171.062 40.9359 175 43L175 39C177.499 40.4183 179.805 41.8074 177 44L176 60L177 60L182 49L187 49C187.16 45.3015 188.635 44.4307 192 46L194 44L198 47L201 41L195 43L192 34L197 34L195 25C198.911 24.3483 199.7 22.8643 200 19L203 19L203 14L201 14z"/>
<path style="fill:#487930; stroke:none;" d="M218 25L224 39L228 39L218 25z"/>
<path style="fill:#93b14b; stroke:none;" d="M218 27L200 48L201 44L198 47L194 44L193 44L192 46C188.581 43.715 186.361 44.8401 187 49L182 49L177 60L183 60L183 54L191 56L192 47L198 54L210 48C208.759 52.4731 207.377 55.1605 203 57C202.297 62.3778 179.288 60.5781 174 62L174 63L179 64L177 83L184 83L184 82L179 82L180 65L194 65L194 64L191 64L191 63L203 63L203 64L197 64L198 68L207 68L208 68C208.857 71.9812 224.443 67.8616 229 67L227 64L236 62L236 61L232 61L232 58L239 57L239 56L233 56C232.491 48.7339 227.048 42.5355 220 41L223 36L218 27z"/>
<path style="fill:#b2cf6f; stroke:none;" d="M169 33L171 60L161 60L161 61L173 61L176 83L177 83L179 64L174 63L174 62L188 61L188 60L176 60L177 44C182.067 42.9087 178.066 39.8158 175 39L175 43L169 33z"/>
<path style="fill:#68903b; stroke:none;" d="M223 35L220 41C226.5 43.2466 232.027 49.0254 233 56L238 58C244.087 56.6686 230.142 39.1312 224 39L223 35z"/>
<path style="fill:#a5d8e2; stroke:none;" d="M236 38L251 42C247.744 37.2113 241.284 36.4818 236 38z"/>
<path style="fill:#49b0c3; stroke:none;" d="M145 56C145 51.7352 146.457 43.9059 143.106 40.618C139.566 37.1442 126.626 42.2901 125.921 46.9753C125.088 52.5156 141.05 55.7376 145 56z"/>
<path style="fill:#d9eef5; stroke:none;" d="M229 39C232.338 48.1369 248.257 55.2644 251 42L229 39z"/>
<path style="fill:#3cb4bb; stroke:none;" d="M252 39L252 40C257.721 41.3595 262.382 43.5182 265 49C268.661 42.1154 256.92 39.4323 252 39z"/>
<path style="fill:#89c7d6; stroke:none;" d="M251 42C248.912 47.9924 244.918 48.9464 239 49L239 50L257 54L253 57L253 58C255.208 57.7588 264.126 55.2188 258 54L258 53C262.224 51.5468 264.661 49.6379 264 45L260 45L261 48L255 48L251 42z"/>
<path style="fill:#90a624; stroke:none;" d="M192 47L191 56L183 54L183 60C187.543 60 202.337 62.2766 203 57C207.836 55.6478 209.17 52.7847 210 48L198 54C197.354 50.0012 195.717 48.4875 192 47z"/>
<path style="fill:#03666e; stroke:none;" d="M266 47L262 52C264.604 50.9154 266.699 50.0167 266 47z"/>
<path style="fill:#4eacb3; stroke:none;" d="M236 49L244 58L246 69L260 74L260 75L258 77C261.648 77 260 88.6285 260 92L261 92L267 50L253 58L253 57L255 57L255 56L245 57L245 56L251 56L251 54L236 49z"/>
<path style="fill:#2f7685; stroke:none;" d="M264 51L258 53L258 54C260.382 53.96 265.163 54.1262 264 51z"/>
<path style="fill:#b3dfe4; stroke:none;" d="M135 54L144 57L135 54z"/>
<path style="fill:#308391; stroke:none;" d="M245 56L245 57L257 56L257 54L245 56z"/>
<path style="fill:#5cb299; stroke:none;" d="M232 58L232 59L241 59L232 58z"/>
<path style="fill:#80a735; stroke:none;" d="M232 60L232 61L236 61L236 62L227 64L229 67C224.21 67.5197 210.81 71.5994 208 68L207 68L198 68L197 64L203 64L203 63L191 63L191 64L194 64L194 65L180 65L179 82L197 86L197 82C211.85 81.3607 229.712 76.3476 243 70L244 58L232 60z"/>
<path style="fill:#a3cea5; stroke:none;" d="M203 60L203 61L231 60L203 60z"/>
<path style="fill:#cae4c9; stroke:none;" d="M146 61L146 66L133 75C133.463 80.8647 132.54 90.66 138 94L140 86C161.498 90.4135 184.11 89.0084 206 89C213.767 88.997 226.633 89.6249 225 79C215.874 79.006 210.169 83.557 201.96 85.135C196.439 86.1963 193.093 82.7112 187.985 82.2284C173.688 80.8769 158.006 84.5861 148.434 69.5609C146.775 66.9569 147.163 63.7639 146 61z"/>
<path style="fill:#46813a; stroke:none;" d="M244 61L242 71L247 66L244 61z"/>
<path style="fill:#217e5a; stroke:none;" d="M245 61L248 67L245 61z"/>
<path style="fill:#c4db7f; stroke:none;" d="M171 62L172 72C166.743 67.1622 162.128 64.9065 155 64C152.133 78.0926 163.374 82.9917 176 83L173 62L171 62z"/>
<path style="fill:#8fbe92; stroke:none;" d="M238 77C243.941 78.7849 248.021 77.7439 249 71L254 72C249.631 66.5975 239.643 71.1874 238 77z"/>
<path style="fill:#67a46e; stroke:none;" d="M240 71L240 72L246 71L240 71z"/>
<path style="fill:#afd6be; stroke:none;" d="M249 71C246.052 82.4114 235.912 74.1751 228.152 77.6034C224.837 79.0678 225.051 83.983 224 87C238.144 85.2125 249.432 84.6121 260 75L249 71z"/>
<path style="fill:#6ea568; stroke:none;" d="M228 75L228 76L238 77L240 72L228 75z"/>
<path style="fill:#7ba554; stroke:none;" d="M197 82L202 86C205.57 80.4338 217.875 79.2078 224 77L197 82z"/>
<path style="fill:#96bc83; stroke:none;" d="M221 79L235 77C230.771 75.2256 223.951 75.1232 221 79z"/>
<path style="fill:#209a78; stroke:none;" d="M259 76L261 99L262 99L259 76z"/>
<path style="fill:#5b9847; stroke:none;" d="M257 77C253.32 86.8914 235.944 91.5848 227 97L230 101L230 102L227 101L226 106L224 106L222 103L218 110L218 111L227 109L231 111L228 112C229.396 118.69 233.535 117.245 239 116L239 117L234 121L245 116C247.954 123.137 255.013 123.612 262 123C258.821 120.486 256.627 120.251 253 122L248 115C248.81 111.382 248.272 109.806 245 108L243 105C245.068 100.433 248.13 98.7704 253 98L259 77L257 77z"/>
<path style="fill:#d0e3b4; stroke:none;" d="M133 79C133 88.3208 132.105 102.874 126.667 110.833C117.393 124.404 104.636 132.794 98.3333 149C94.9771 157.63 93.0996 168.739 94 178C94.27 180.777 100.013 196.14 101 188L102 188L107 198L117 199L116 192L119 189L120 189L121 189L123 191L121 184L123 186L124 186L123 179L124 179L133 178L131 176L131 175L134 181C137.612 181.825 140.769 182.391 141 178L144 177L148 185L147 178L147 177L151 175L150 172L151 171L155 172L156 167L161 166L164 171L175 165L170 164L171 161L167 157C175.289 158.154 181.875 157.8 187 151L187 150L185 149L186 145C182.448 149.455 180.095 152.158 174 152L169 156L168 151L162 149L165 144L164 139L167 135L162 134L162 128L164 124L165 124L167 126L167 122L162 122L162 121L166 121L166 120L160 118L153 101L155 103L156 103L154 97L151 98C158.049 87.9291 179.135 89.245 191 89L191 88L140 86L138 94L133 79z"/>
<path style="fill:#89bc59; stroke:none;" d="M255 79C251.115 83.6646 247.458 81.8928 242.285 83.5447C232.109 86.795 222.301 90.7302 212 93.821C208.065 95.0016 203.002 94.1044 199.455 96.1389C193.763 99.4041 182.284 109.276 191 115L191 116L185 116L185 117L192 121L201 121L201 123L204 122L208 125L209 130L214 129L214 128L211 123L207 123L208 120L212 121L212 116L207 116L210 110L204 109L214 104L213 109L214 109L217 106L216 103L219 103L205 101L205 103L202 102C204.831 99.7837 206.751 97.8076 210 100C214.109 98.9658 222.391 101.026 223 96L251.811 85.6967L255 79z"/>
<path style="fill:#4a8340; stroke:none;" d="M257 81L253 98C248.016 98.4522 244.406 99.8954 243 105L245 108L248 115L253 122L262 122L265 119L264 121L265 121C272.643 119.706 270.482 114.3 265 111L264 116C254.117 106.875 261.142 91.611 257 81z"/>
<path style="fill:#b2d29b; stroke:none;" d="M202 83L202 85L206 85L206 83L202 83z"/>
<path style="fill:#23693c; stroke:none;" d="M258 85C255.871 92.2713 256.968 111.702 264 116C263.736 108.611 262.583 91.3021 258 85z"/>
<path style="fill:#b8d58d; stroke:none;" d="M151 98L154 97L156 103L155 103L153 101L160 118L166 120L166 121L162 121L162 122L167 122L167 126L165 124L164 124L162 128L162 134L167 135L164 139L165 144L162 149L168 151L169 156L174 152C180.471 152.586 182.923 150.467 186 145L185 149L187 151C180.736 156.917 175.667 157.143 167 157L171 161L170 164L175 165L164 171L161 166L158 167L159 170L162 170L162 175L160 172L156 174L159 176L156 177L156 178C159.412 179.28 161.073 179.209 163 176L167 178L167 174L174 173L181 168L179 174L184 174L184 170L184 166L190 168L201 164L201 165L196 168L196 169L208 167L208 160L212 161C209.844 157.96 207.466 158.255 204 159L202 158L206 156L205 153L212 152L212 151C209.636 149.582 205.532 143.883 210 145C208.782 141.251 206.805 140.694 203 141L202 135L196 136L197 132L191 131L191 129L208 128L208 125L204 122L201 123L201 121L192 121C192.007 119.619 192.388 118.23 190.194 118.417C187.143 118.676 184.61 122.655 181.306 120.333C175.071 115.954 171.653 100.474 183 102L183 97L183 96L180 96L180 95L226 88C220.792 85.8759 214.498 88.8503 209 88.9854C195.537 89.3161 182.498 90.0265 169.09 91.0409C161.087 91.6463 155.113 89.5647 151 98z"/>
<path style="fill:#9ec96f; stroke:none;" d="M180 95L180 96L183 96L183 97L181 98L183 102C168.629 99.3355 177.011 127.383 189 119L185 117L185 116L191 116L191 115C186.029 109.967 189.055 105.191 193.965 101.345C201.989 95.0587 209.982 94.0943 220 92C210.433 87.9947 189.735 91.9075 180 95z"/>
<path style="fill:#78a74d; stroke:none;" d="M229 94L223 96C222.345 101.037 213.816 98.6052 210 100C207.226 96.8392 204.327 99.4462 202 102L205 103L205 101L219 103L216 103L217 106L214 109L213 109L214 104L204 109L210 110L207 116L212 116L212 121L207 123L211 123C210.713 126.008 211.033 127.134 214 128L214 129L207 128L211 133L233 133L231 130L231 129L242 127L242 126L236 126L236 125L250 123C250.902 127.145 256.36 125.985 260 126L245 116L234 121L239 117L239 116C233.62 116.772 230.119 117.978 228 112L231 111L227 109L218 111L218 110L222 103L224 106L226 106L227 101L230 102L230 101L227 97L230 97L229 94z"/>
<path style="fill:#258978; stroke:none;" d="M262 100L264 110L265 110L262 100z"/>
<path style="fill:#4ea27d; stroke:none;" d="M271 117L269 122C276.538 126.378 287.078 139.062 287 148C302.028 156.728 295.621 190.899 277 191L276 197C271.401 200.304 270.444 209.559 270 215L260 222L260 219L257 218C257.746 215.054 258.197 213.689 255 213C253.921 221.772 244.098 219.24 240 225L239 225L237 223C236.775 228.222 236.154 232.551 232 236L233 232L232 232L229 238L253 224C253.608 232.64 259.392 230.1 265 227L256 246C265.412 244.127 272.217 234.883 278.414 228.169C305.785 198.511 305.908 141.592 271 117z"/>
<path style="fill:#5ba268; stroke:none;" d="M263 119C260.281 125.345 254.63 128.325 249 123L245 126L245 127L252 127L263 133C269.991 130.371 268.789 143.192 268 147L269 151L271 154L267 154L269 160L269 161L269 162C266.994 163.127 266.994 163.873 269 165L269 173L267 172L264 177L266 182L258 183L259 186L254 187L249 186L249 187L252 188L252 189L247 192L252 190L259 192L260 195L272 192C272.255 195.298 272.485 197.066 276 197L277 191C284.574 191.364 290.282 186.816 293 180C287.112 182.291 285.851 182.96 280 180C283.365 175.12 281.121 168.581 275 168L276 162L274 162L276 159L276 141L281 141L280 137L286 139L286 138C278.957 132.967 273.398 119.992 264 121L265 119L263 119z"/>
<path style="fill:#80bb75; stroke:none;" d="M236 125L236 126L242 126L242 127L231 129L231 130L233 133L211 133C205.96 127.713 197.848 129.052 191 129L191 131L203 131L208 132L206 135L216 135L215 138L223 134L232 137C235.587 134.315 240.533 136.666 244 139L258 143L258 144L254 144L251 151L252 147L251 147C248.408 150.888 248.886 154.309 251 156L245 159L249 161L251 160L253 164L244 183L248 177L240 182L237 178L236 178L238 184C236.041 186.88 236.276 188.817 240 189L244 193L244 189L252 189L252 188L249 187L249 186L254 187L259 186L258 183L266 182L264 177L267 172L269 173L269 165L269 162L269 161L269 160L267 154L271 154L269 151L268 147C268.93 143.985 268.832 127.121 263 133L252 127L245 127L245 126L248 126L236 125z"/>
<path style="fill:#d2e3bc; stroke:none;" d="M190 125C193.058 129.717 200.926 128 206 128L206 125L190 125z"/>
<path style="fill:#e7eec6; stroke:none;" d="M133 130L130 129L126 132C124.687 137.031 122.005 139.666 117 141C117.552 144.55 115.949 149.128 120 150L120 151L116 152C116.825 155.262 116.328 159.539 120 160C122.705 172.717 144.552 168.874 153 165L151 162L155 161L155 160L153 156L152.476 146.17L146 131L145 131L144 134L139 128L133 130z"/>
<path style="fill:#93c671; stroke:none;" d="M203 131L197 132L196 136L202 135L200 137L203 141C206.671 140.886 208.301 141.728 210 145C206.16 145.658 209.965 149.876 212 151L212 152L205 153L206 156L202 158L204 159L212 161L208 160L208 167L196 169L196 168L201 165L201 164C192.415 165.302 178.461 174.852 179 185L172 188L167 186L169 189L167 190L168 191L177 192L175 195L173 199L174 196L170 195L170 196L172 198L168 200L167 200L162 200L163 203C165.326 204.556 165.326 205.444 163 207L162 211L162 212L164 214L161 213L154 215L149 218L149 226C145.253 228.429 142.15 239.397 142 244L143 244L143 240L151 240L152 232L154 233C157.202 230.282 160.172 229.701 160 225L165 226L164 222L169 225L183 227L180 224L180 218L184 212L181 210L183 207L192 208L193 202L197 204L203 200L202 197L205 199L211 194L211 193L208 193L210 186L210 185L214 185L214 184L211 184L212 179L216 180L216 176L220 178C224.845 176.144 227.683 175.78 232 179L225 181L224 186L229 185L235 182L233 186L236 187L238 184L236 178L237 178L240 182L248 177L244 183C251.229 179.432 250.353 170.701 253 164L251 160L249 161L249 158L245 159L246 156L251 156L249 154L251 152L251 147L252 147L251 151L254 144L258 144L258 143C253.252 139.803 249.84 137.735 244 139C241.407 135.972 234.705 133.343 232 137L223 134L215 138L216 135L206 135L208 132L203 131z"/>
<path style="fill:#4e8c49; stroke:none;" d="M280 137L281 141L276 141C275.82 147.214 272.083 153.407 276 159L274 162L276 162L275 168L279 169L283 171L284 171L283 160L287 160C284.607 155.322 283.353 149.503 288 146C286.399 141.185 284.897 138.739 280 137z"/>
<path style="fill:#367948; stroke:none;" d="M287 160L283 160L284 172L286 171L289 178C294.571 176.143 294.386 158.328 293 155C291.428 151.228 287.68 147.28 288 146C283.041 148.881 284.279 155.752 287 160z"/>
<path style="fill:#469364; stroke:none;" d="M293 155C292.287 162.832 295.028 171.974 289 178L286 171L279 167C280.498 171.677 282.454 175.36 280 180C286.107 184.181 287.65 182.435 294 180L293 155z"/>
<path style="fill:#a3d187; stroke:none;" d="M184 166L184 170L184 174L179 174L181 168L174 173L167 174L167 178L163 176L161 181L160 188L148 192L146 198L148 212L148 213L146 227L149 226L149 218C152.081 218.283 153.144 218.03 154 215L161 213L164 214L162 212L162 211L163 207C166.457 206.259 166.457 203.741 163 203L162 200L167 200L168 200L172 198L170 196L170 195L173 199L175 195L177 192L167 190L169 189L169 188L167 186L172 188L179 185C179.061 176.503 190.261 175.409 188 167L184 166z"/>
<path style="fill:#b9dbb0; stroke:none;" d="M156 167L155 172L151 171L150 172L151 175L147 177L147 178L148 185L144 177L141 178C140.439 182.054 137.448 181.543 134 181C134.579 177.628 134.445 175.968 131 175L131 176L133 178L124 179L123 179L124 186L123 186L121 184L123 191L121 189L120 189L119 189L116 192L117 199L107 198L102 188L101 188L100 191L96 183L95 183C95.0478 200.324 104.26 217.12 115.3 230C121.156 236.832 126.686 243.239 136 240L144 246L145.853 232.961L148 213L148 212L146 198L148 192L160 188L161 181L164 178C162.117 178.429 154.717 179.01 159 176L156 174L162 175L162 170L159 170L156 167z"/>
<path style="fill:#64b15a; stroke:none;" d="M216 176L216 180L212 179C211.765 181.975 210.601 183.588 214 184L214 185L210 185L210 186L212 187C209.181 188.494 206.569 192.031 211 193L211 194L205 199L202 197L203 200L197 203L213 209L225 202L228 203L229 202L229 200L226 196L227 196L233 199L235 195L233 191L235 193L236 193L237 193L239 190L233 186L235 182L229 185L224 186L225 181L232 179C228.419 175.236 224.358 175.733 220 178L216 176z"/>
<path style="fill:#68bfd4; stroke:none;" d="M297 182C296.979 213.44 266.625 251.555 235 257L235 258L291 259C287.579 265.355 278.453 264.951 272 265.715C253.06 267.957 230.843 265.381 212 263C207.451 270.439 196.157 270.832 188 271L188 272L196 273L196 282L200 283C200.722 279.969 200.425 275.834 202.028 273.149C207.523 263.944 209.998 278.345 210 282C220.797 282 233.549 276.613 244 274C254.676 271.331 268.849 275.794 276 275C280.473 274.503 295.911 272.357 295 276C300.484 274.825 298 259.857 298 255L298 203C298 197.147 299.877 186.994 297 182z"/>
<path style="fill:#4cb972; stroke:none;" d="M239 189L237 193L236 193L235 193L233 191L235 195L233 199L227 196L226 196L229 200L229 202L228 203L225 202L213 209L207 208L207 209L210 210L203 215L205 219L200 224L192 223C187.06 227.465 175.542 232.598 170 227L169 227L168 227C164.057 230.09 160.362 229.963 161 236L156 241L160 244L153 245L175 257C163.693 258.398 154.713 253.545 144 251L144 252C156.757 259.411 177.031 266.561 191.424 260.046C199.329 256.467 205.878 252.655 204 243L207 238L210 239L211 235C219.981 239.466 226.278 243.925 232 232L233 232L232 236C236.821 233.35 236.895 228.089 237 223L239 225L240 225L242 223L242 222L238 213L238 212L242 212L241 207L247 206L256 193L252 190L247 192L244 189L244 193L239 189z"/>
<path style="fill:#3fa46e; stroke:none;" d="M247 206L241 207L242 212L238 212L238 213L239 222C245.522 222.416 254.667 220.841 255 213L257 218L260 222L270 215L272 192L260 195L259 192C251.894 195.183 248.387 198.268 247 206z"/>
<path style="fill:#68c183; stroke:none;" d="M193 202L192 208L183 207L181 210L184 212L182 214L180 218L183 227L169 225L164 222L165 226L160 225L154 233L152 232L151 240L143 240L151 254L175 257L153 245L160 244L156 241L161 236L168 227L169 227L170 227C174.505 233.042 188.19 228.111 192 223L200 224L205 219L203 215L210 210L195 204L195 202L193 202z"/>
<path style="fill:#5cbea1; stroke:none;" d="M252 224C244.38 229.363 231.798 240.352 222.001 240.056C217.508 239.921 214.994 236.226 211 235L210 239L207 238L204 243C205.788 260.213 184.434 262 172 262L172 263L212 265L232 259L232 258L225 257L222 258L225 254L222 252C230.305 247.534 257.517 235.872 252 224z"/>
<path style="fill:#47b19f; stroke:none;" d="M264 227C260.481 229.048 257.956 230.739 254 229L222 252L225 254L222 258L225 257C231.74 264.093 251.657 250.376 258 247L264 227z"/>
<path style="fill:#d8e493; stroke:none;" d="M113 229C108.007 237.857 95.1392 239.51 86.1698 241.259C73.0365 243.821 62.9222 247.326 49 246.985C43.6231 246.854 36.1765 243.759 31.0401 245.618C26.0724 247.416 24.0258 253.909 21.4205 258C13.9943 269.66 6.32287 282.215 1 295L28 302C32.2451 307.437 38.6332 305.505 44 303L44 306L49 303C55.0278 310.889 58.6294 304.276 58.9606 297C59.4911 285.348 56.9168 269.057 59.7423 258.019C60.7251 254.18 63.47 253.273 67 253L66 249L71 255L79 251C79.7809 255.063 83.4512 256.8 86 253L112 249C114.456 245.201 116.413 243.353 121 243L122 238L113 229z"/>
<path style="fill:#d4e5bb; stroke:none;" d="M53 246L53 247C65.7584 247 75.052 243.54 87.0895 241.259C95.7508 239.618 107.721 238.13 113 230C92.8638 235.801 74.7114 245.82 53 246z"/>
<path style="fill:#c3cc6e; stroke:none;" d="M120 238L121 243C116.177 243.16 113.955 244.533 112 249L86 253C83.0658 255.54 80.2299 254.793 79 251L71 255L66 249L67 253C64.0962 253.096 61.4071 253.148 60.0131 256.148C58.3372 259.754 59.8924 264.208 59.9853 268C60.1997 276.748 59.1142 285.298 58.9961 294C58.8948 301.466 56.9998 310.158 49 303L44 306L44 303L43 303C37.3992 305.609 32.9738 306.216 28 302L1 295L1 297C20.593 307.32 36.9678 312.239 59 309C61.3268 296.511 61.7921 284.714 62.0046 272C62.0614 268.602 62.5528 261.027 66.3133 259.442C69.458 258.117 74.7451 261.438 78 262L78 259C84.1311 259.654 101.963 258.697 106 254L116 254L116 251C124.862 250.344 133.25 238.456 120 238z"/>
<path style="fill:#27b071; stroke:none;" d="M186 243L187 243L188 241L189 244L175 252L175 254C186.085 260.438 189.276 251.986 200 253C200.71 250.695 203.577 245.946 201.918 243.702C198.492 239.069 188.175 236.484 186 243z"/>
<path style="fill:#85c990; stroke:none;" d="M128 241L128 242C135.741 247.543 143.301 252.154 153 253L136 240L128 241z"/>
<path style="fill:#8db057; stroke:none;" d="M128 242C126.441 246.998 121.043 250.251 116 251L116 254L106 254C100.239 258.438 85.2208 259.391 78 259L78 262C70.7411 259.999 65.5952 255.639 63 265C72.0539 266.473 75.8841 270.965 73 281L77 282L78 277C83.3436 275.833 82.5781 272.692 82 268L93 268L91 262L98 261L93 271L90 270C89.9439 274.751 89.4585 277.751 85 280L86 287L79 292L79 293L85 305L85 306L82 308L77 305L77 306L78 312C82.4462 310.188 86.2327 308.231 88 314L90 314L90 310L105 318L105 316L108 317L117.525 311.525L128 301L127 299L133 299L134 296L135 289L138 290L133 285L141 268L135 271L134 270L136 263L128 262L124 259L128 256L126 254L132 244L128 242z"/>
<path style="fill:#74a640; stroke:none;" d="M128 256L124 259L128 262L136 263L134 265L134 270L135 271L141 268L133 285L138 290L135 289L134 296L133 299L127 299L128 301L116.736 311.525L108 317L105 316L105 318L90 310L90 314L88 314C86.9489 307.706 82.3098 309.531 78 312L77 306L77 305L82 308L85 306L85 305L83 298L80 301L80 298L72 299L65 304L57 311L57 312C65.4552 312.865 69.4506 319.343 77.0008 321.895C95.4229 328.121 108.972 323.036 125 314L122 312L123 306C129.696 303.883 134.885 304.647 139 298L142 300L144 290C147.933 289.157 146.609 286.85 145 284L153 288L153 280L157 284L155 284L156 287C160.956 281.891 159.124 275.784 153 273L153 272L157 271C155.852 267.687 152.683 266.9 151.178 263.867C147.732 256.921 148.705 253.964 141 249.769C135.262 246.645 123.351 245.847 128 256z"/>
<path style="fill:#529732; stroke:none;" d="M149 255L157 271L153 272L153 273C158.643 276.707 160.293 281.302 156 287L155 284L157 284L153 280L153 292L154 292L156 290L156 296C159.343 292.258 165.945 289.054 167.123 283.999C169.069 275.644 156.703 256.695 149 255z"/>
<path style="fill:#249f68; stroke:none;" d="M155 257L155 258L172 287L161 258L155 257z"/>
<path style="fill:#81d2e2; stroke:none;" d="M215 263L215 264C234.266 264 253.832 267.984 273 265.715C278.892 265.017 288.86 265.605 291 259C265.2 259 239.973 256.536 215 263z"/>
<path style="fill:#66bfd4; stroke:none;" d="M160 259C163.173 266.723 172.566 279.478 171.508 288C171.024 291.904 167.272 295.228 166 299L181 297C181.612 289.325 187.585 270.718 180.566 264.603C176.696 261.232 165.173 260.197 160 259z"/>
<path style="fill:#44b181; stroke:none;" d="M160 260L163 266L160 260z"/>
<path style="fill:#a4be4e; stroke:none;" d="M91 262L93 268L82 268C82.3066 272.556 82.7202 275.249 78 277L77 282L73 281C78.4558 270.973 70.752 265.416 62 265L59 309L46 311L46 312C52.667 312 63.5625 312.357 65 304C68.9017 303.725 70.9026 302.883 72 299C75.4661 300.635 76.8554 300.084 80 298L80 301C82.3357 297.696 83.4652 294.502 79 293L79 292L86 287L85 280C90.0976 278.453 89.9831 274.783 90 270L93 271L98 261L91 262z"/>
<path style="fill:#35856d; stroke:none;" d="M181 264C184.66 271.695 195.669 269 203 269L181 264z"/>
<path style="fill:#419e83; stroke:none;" d="M186 264L186 265L204 266L204 267L201 267L201 268C205.759 269.091 209.118 268.919 211 264L186 264z"/>
<path style="fill:#26584d; stroke:none;" d="M196 266L196 267L204 267L196 266z"/>
<path style="fill:#4aa4b6; stroke:none;" d="M183 269L182 290L186 290L186 295L189 294L188 291L200 286L196 282L196 273L188 272L188 271L200 270L183 269z"/>
<path style="fill:#09582e; stroke:none;" d="M208 291L207 270C197.454 271.522 197.734 290.202 208 291z"/>
<path style="fill:#2e9360; stroke:none;" d="M207 270L208 286L209 286L209 270L207 270z"/>
<path style="fill:#27979a; stroke:none;" d="M209 272L208 290L209 290L209 272z"/>
<path style="fill:#0000ff; stroke:none;" d="M291.667 273.333L292.333 273.667L291.667 273.333z"/>
<path style="fill:#4fa1b4; stroke:none;" d="M210 282L208 290C212.371 296.518 221.024 313.463 221 321L216 321L217 319L195 323L195 324C200.146 324.022 215.104 325.842 216 332C221.722 333.989 227.831 332.647 229 340L236 338C240.618 345.088 247.3 336.376 244 330L260 336L255 331L255 330C277.47 341.658 255.75 355.714 240 357L240 358L254 360L254 361L218 369L220 366L211 366L211 367L216 368L216 369L195 369L195 370L198 370L198 371L183 371L183 372L244 371L249 373L283 362C283 357.629 287.332 360.695 290 361L290 360L288 358L294 358L301 355L299 358C312.773 358.885 323.112 348.119 335 344L335 345C327.478 349.614 331 367.995 331 376L349 376L347.66 326L347.941 307L339 294L323 283L319 281L299 275L245 274.17L210 282z"/>
<path style="fill:#00ffff; stroke:none;" d="M294.667 274.333L295.333 274.667L294.667 274.333z"/>
<path style="fill:#63b0c5; stroke:none;" d="M298 274L299 277L314 278C315 281.036 315.863 281.494 319 281L322 284L322 282C328.013 285.547 337.846 289.888 340 297L346 304L348 304L347 306C352.372 301.306 349 281.064 349 274L298 274z"/>
<path style="fill:#00ffff; stroke:none;" d="M307.667 277.333L308.333 277.667L307.667 277.333z"/>
<path style="fill:#000000; stroke:none;" d="M309 277L310 278L309 277z"/>
<path style="fill:#00ffff; stroke:none;" d="M310.667 278.333L311.333 278.667L310.667 278.333z"/>
<path style="fill:#0000ff; stroke:none;" d="M312.667 278.333L313.333 278.667L312.667 278.333M315 279L316 280L315 279z"/>
<path style="fill:#00ffff; stroke:none;" d="M316.667 280.333L317.333 280.667L316.667 280.333z"/>
<path style="fill:#000000; stroke:none;" d="M322 282L323 283L322 282z"/>
<path style="fill:#00ffff; stroke:none;" d="M323.667 283.333L324.333 283.667L323.667 283.333z"/>
<path style="fill:#609947; stroke:none;" d="M145 284C145.995 286.846 146.628 288.217 144 290L142 300L139 298L123 306L122 312L125 314L107 324C121.612 323.99 149.739 318.353 152 301C158.357 299.938 155.952 294.985 156 290L154 292L153 292C152.242 287.184 149.321 285.69 145 284z"/>
<path style="fill:#3f782b; stroke:none;" d="M167 284L152 301L151 308C156.945 305.167 170.254 290.609 169 284L167 284z"/>
<path style="fill:#80fdfe; stroke:none;" d="M323 284L323 285L326 286L323 284z"/>
<path style="fill:#000000; stroke:none;" d="M326 284L327 285L326 284z"/>
<path style="fill:#2d99ab; stroke:none;" d="M200 285L188 291L186 295L186 290C181.765 290.735 181.224 292.948 181 297L167 298L167 299L184 301L181 302L181 307L176 308L179 314L181 314L187 303L188 303C188.249 308.342 189.347 311.351 195 312L195 307L199 307L199 312L208 313L208 314L199 315L199 317L212 315L208 312L208 311C209.107 310.24 209.845 309.812 210.647 308.684C218.862 297.12 201.928 302.915 204 298L206 294L206 293L194 294L194 293L197 292L196 288L200 285z"/>
<path style="fill:#0000ff; stroke:none;" d="M327 285L328 286L327 285z"/>
<path style="fill:#000000; stroke:none;" d="M328 285L329 286L328 285z"/>
<path style="fill:#21451f; stroke:none;" d="M170 286L157 304C164.262 301.15 170.208 294.22 173 287L170 286z"/>
<path style="fill:#0000ff; stroke:none;" d="M329 286L330 287L329 286z"/>
<path style="fill:#166774; stroke:none;" d="M196 288L197 292L194 293L194 294L207 293L207 291L202 287L196 288z"/>
<path style="fill:#0000ff; stroke:none;" d="M330 287L331 288L330 287z"/>
<path style="fill:#000000; stroke:none;" d="M331 287L332 288L331 287z"/>
<path style="fill:#7ffefe; stroke:none;" d="M332 288L338 295L332 288z"/>
<path style="fill:#93bdc7; stroke:none;" d="M207 291L203 297L209 297L209 296L207 294L210 294L210 293L207 291z"/>
<path style="fill:#e3f1f0; stroke:none;" d="M208.667 291.333L209.333 291.667L208.667 291.333z"/>
<path style="fill:#0000ff; stroke:none;" d="M336 291L337 292L336 291M337 292L338 293L337 292z"/>
<path style="fill:#bce2e6; stroke:none;" d="M210 293L207 294L209 296L209 297L202 298C203.684 303.008 207.802 300.508 212 300L210 293z"/>
<path style="fill:#0000ff; stroke:none;" d="M338 293L339 294L338 293z"/>
<path style="fill:#000000; stroke:none;" d="M339 294L340 295L339 294M340 295L341 296L340 295z"/>
<path style="fill:#59833c; stroke:none;" d="M0 296C4.60442 304.808 22.6214 309.8 32 310L32 309L0 296z"/>
<path style="fill:#000000; stroke:none;" d="M341 297L342 298L341 297z"/>
<path style="fill:#6fc9d8; stroke:none;" d="M0 298L0 328L5 330L8 329L11 332L7 334L28 343L27 347L35 348L33 351C36.3107 354.432 46.1433 352.434 51 352L58 364L59 364L59 362L61 362L60 366L76 365L77 365C80.3314 363.692 82.623 366.327 86 367.102C92.0393 368.488 105.192 368.854 110 365L111 365C114.474 369.129 121.788 367.945 125 364L126 364C127.572 366.742 129.391 365.841 130 363L131 363L135 366L131 362L132 360L118 355C114.676 351.058 109.49 352.866 104.996 353.204C96.0252 353.879 86.9997 353.064 78 354L81 352L81 351L78 351L78 350L80 350L80 349L71 351C65.52 343.801 46.4845 346.342 38.0903 342.319C31.1996 339.018 30.7345 331.514 25 328L35 321L35 319L0 298z"/>
<path style="fill:#2b7184; stroke:none;" d="M162 303L176 308L181 307L184 301C178.498 298.135 165.151 296.892 162 303z"/>
<path style="fill:#000000; stroke:none;" d="M342 298L343 299L342 298M343 299L344 300L343 299z"/>
<path style="fill:#0000ff; stroke:none;" d="M344 300L345 301L344 300z"/>
<path style="fill:#58ae7a; stroke:none;" d="M5 301L17 308L5 301z"/>
<path style="fill:#0000ff; stroke:none;" d="M345 301L346 302L345 301z"/>
<path style="fill:#025966; stroke:none;" d="M156 306C156.207 312.594 151.061 314.579 146 317.604C137.462 322.708 122.43 326.966 116 334L128 335C137.737 326.723 150.495 323.023 161.826 317.405C167.179 314.751 169.443 310.295 176 312L176 306C168.138 305.373 163.204 301.203 156 306z"/>
<path style="fill:#0000ff; stroke:none;" d="M346 302L347 303L346 302z"/>
<path style="fill:#0d292b; stroke:none;" d="M121 322L121 325L87 324.575L59 314L59 315C78.2301 326.029 92.6715 326.44 114 326L114 327L67 330L67 331C87.7667 335.747 101.081 334.075 121 328.206C126.837 326.486 133.755 325.917 139 322.752C145.258 318.974 157.391 314.524 156 306L160 304C155.89 303.449 152.478 307.249 149 309.215C140.085 314.255 131.618 321.324 121 322z"/>
<path style="fill:#83b6c1; stroke:none;" d="M185 303L183 308L184 317L195 315L195 312C189.837 310.926 188.459 308.04 188 303L187 303L186 305L185 303z"/>
<path style="fill:#106d78; stroke:none;" d="M213 304L208 311L208 312L211 314L215 312L216 321L221 321C221.938 315.23 216.749 308.271 213 304z"/>
<path style="fill:#000000; stroke:none;" d="M347 304L348 305L347 304M348.333 306.667L348.667 307.333L348.333 306.667z"/>
<path style="fill:#60c0ae; stroke:none;" d="M15 309L23 313L18 307L15 309z"/>
<path style="fill:#42a471; stroke:none;" d="M18 307C24.3361 319.386 46.2951 324.983 59 326L55 320L61 322L59 318L63 321L68 320L68 319C55.02 314.023 46.2291 312.203 32 314C31.4291 310.172 21.6885 307.814 18 307z"/>
<path style="fill:#b6dde4; stroke:none;" d="M184 307L179 314L176 319L174 331C179.001 330.093 182.175 328.221 183 323L189 322L189 318L184 317L184 307z"/>
<path style="fill:#dbeef2; stroke:none;" d="M195 307L195 316L199 316L199 307L195 307z"/>
<path style="fill:#5fabb0; stroke:none;" d="M176 309L176 319C181.483 317.459 179.172 312.017 176 309z"/>
<path style="fill:#000000; stroke:none;" d="M349 309L350 310L349 309z"/>
<path style="fill:#86c085; stroke:none;" d="M26 310L26 311L32 314L44 314L26 310z"/>
<path style="fill:#49752c; stroke:none;" d="M32 310L32 311L70 318C64.1065 309.239 41.7697 310.006 32 310z"/>
<path style="fill:#1a7888; stroke:none;" d="M153 321L153 322L166 323L172 318L168 323L168 324L177 322L174 310L153 321z"/>
<path style="fill:#8080ff; stroke:none;" d="M348.333 310.667L348.667 311.333L348.333 310.667z"/>
<path style="fill:#0000ff; stroke:none;" d="M349 310L350 311L349 310z"/>
<path style="fill:#00ffff; stroke:none;" d="M349 311L349 314L350 314L349 311z"/>
<path style="fill:#a3cfd3; stroke:none;" d="M199 312L199 313L203 313L203 314L199 314L199 315L208 314L199 312z"/>
<path style="fill:#74b9c0; stroke:none;" d="M214 312C210.307 323.854 192.282 314.542 190 325L217 319L214 312z"/>
<path style="fill:#80ffff; stroke:none;" d="M348.333 312.667L348.667 313.333L348.333 312.667z"/>
<path style="fill:#65a4ac; stroke:none;" d="M199 313L199 314L203 314L199 313z"/>
<path style="fill:#a4d0d0; stroke:none;" d="M188 317L189 322L183 323L183 327C187.299 325.571 189.42 322.197 193.224 320.599C199.927 317.782 210.29 322.165 214 314L188 317z"/>
<path style="fill:#8080ff; stroke:none;" d="M348 314L348 317L349 317L348 314z"/>
<path style="fill:#0000ff; stroke:none;" d="M349 314L349 317L350 317L349 314z"/>
<path style="fill:#4c959f; stroke:none;" d="M188 315L195 318L195 315L188 315z"/>
<path style="fill:#0d724c; stroke:none;" d="M50 317L50 318L54 319L54 318L50 317z"/>
<path style="fill:#808080; stroke:none;" d="M348 317L348 324L349 324L348 317z"/>
<path style="fill:#000000; stroke:none;" d="M349 317L349 324L350 324L349 317z"/>
<path style="fill:#299f86; stroke:none;" d="M59 318L61 322L58 321L61 326C65.9759 324.579 70.9195 326.745 74 322L69 323L69 322L71 320L63 321L59 318z"/>
<path style="fill:#008285; stroke:none;" d="M171 318L166 323C155.477 317.472 135.018 326.53 128 335C121.865 330.77 114.275 335.746 108 337.461C96.4583 340.615 85.7318 339 74 339L74 340L99 341.91L122 337L121 347L122 347L123 341L124 341C126.665 349.513 129.947 355.406 140 354L140 353C133.009 349.673 121.979 342.299 130 335L130 337L134 334L133 339L136 338C138.918 343.871 153.05 349.147 155 340L151 341C151.037 330.653 157.226 331.438 164.285 325.988C167.111 323.808 171.868 322.011 171 318z"/>
<path style="fill:#55aac0; stroke:none;" d="M25 328L39.0394 343.124L71 351L80 349L80 350L78 350L78 351L81 351L81 352L78 354L104 353.529L118 355C124.76 354.698 131.8 360.497 138 363.128C147.827 367.298 159.324 369.912 170 370L170 369L137 361L138 359C131.041 354.895 126.221 351.683 123 344L122 344L121 347L117 342L116 345C111.905 344.3 107.55 345.59 105 349L104 349L97 347L81 346L52.9853 343.716L37 338C36.1641 331.386 35.0112 325.631 43 324C37.5549 318.114 28.3475 321.303 25 328z"/>
<path style="fill:#218c6a; stroke:none;" d="M55 320C58.8596 332.337 83.0015 330.283 93 328L93 327L74 322L61 326L58 320L55 320z"/>
<path style="fill:#1a7957; stroke:none;" d="M69 322L69 323L73 322L69 322z"/>
<path style="fill:#28a4b6; stroke:none;" d="M174 322C165.381 329.334 151.012 325.818 151 341L155 340L149 347C159.116 347.518 169.014 351.223 179 352.855C199.734 356.244 223.116 357.639 244 355L244 356L242 356L242 357C253.196 355.492 275.702 345.983 260.965 333.225C259.089 331.601 257.301 330.782 255 330L255 331L260 336L244 330C245.797 335.693 241.997 343.847 236 338L221 340L221 334L220 334L220 339L218 337L209 342L212 336C203.275 331.591 198.666 327.462 188 330L189 325C180.374 327.081 183.532 330.734 179.973 336.853C177.994 340.256 174.224 339.713 174 344L158 342L162 342L158 337L166 337L176 322L174 322z"/>
<path style="fill:#3ca1b0; stroke:none;" d="M37 338C45.4607 339.268 52.4174 344.826 61.0895 345.871C70.7399 347.034 89.0232 341.85 97 347L104 349L105 349L116 345L117 342L120 346L121 346L122 337C101.428 338.68 86.1413 347.944 65 341.495C53.9688 338.13 46.0944 336.717 49 324C37.6832 321.541 35.1877 328.238 37 338z"/>
<path style="fill:#47752a; stroke:none;" d="M82 323L82 324L105 326L82 323z"/>
<path style="fill:#386427; stroke:none;" d="M106 324L106 325L121 325L121 323L106 324z"/>
<path style="fill:#009889; stroke:none;" d="M188 330L203 330L200 327L202 324C195.98 324 189.527 322.847 188 330z"/>
<path style="fill:#80ffff; stroke:none;" d="M347 324L347 328L348 328L347 324z"/>
<path style="fill:#00ffff; stroke:none;" d="M348 324L348 329L349 329L348 324z"/>
<path style="fill:#ffffff; stroke:none;" d="M349 324L349 376C310.745 376 269.971 371.947 232 376L232 377L350 377L350 341L349 324z"/>
<path style="fill:#066977; stroke:none;" d="M47 334C54.5347 334.678 61.5005 338.594 69 339.66C84.1658 341.815 101.534 339.812 116 335L116 334C103.424 334 82.016 342.344 71 335C67.2661 332.511 61.9218 332.313 63 328C54.926 324.728 47.505 323.14 47 334z"/>
<path style="fill:#02464e; stroke:none;" d="M67 331L67 330L86 330L85 327L62 329C67.9667 337.165 75.6901 337 85 337C102.93 337 117.427 332.179 134 326C125.907 323.129 116.646 331.245 109 332.74C93.7466 335.722 82.0725 333.216 67 331z"/>
<path style="fill:#91ccd9; stroke:none;" d="M173 325L171 333L176 332L175 325L173 325z"/>
<path style="fill:#bfdce0; stroke:none;" d="M194 325L194 326L197 326L194 325z"/>
<path style="fill:#1e5c66; stroke:none;" d="M202 325L202 326L211 329L202 325z"/>
<path style="fill:#3e6541; stroke:none;" d="M103 327L103 328L114 327L103 327z"/>
<path style="fill:#fefefe; stroke:none;" d="M200 326L200 327L213 337C210.336 331.027 206.35 327.528 200 326z"/>
<path style="fill:#6db8be; stroke:none;" d="M202 326L202 327L205 327L202 326z"/>
<path style="fill:#81d0de; stroke:none;" d="M6 357L7 357L11 358L16 362L27 361C37.7043 373.47 54.403 371 70 371L169 371L169 370L131 361L135 366L131 363L130 363L130 366L126 364L125 364C120.8 367.455 115.454 368.501 111 365L110 365C104.248 368.302 92.9476 368.405 86.4244 366.938C83.0875 366.187 79.8822 362.15 77 365L76 365L60 366L61 362L59 364L58 364L51 352L33 351L35 348L27 347L28 343L7 334L11 332L5 330C4.2888 326.681 0.933031 326.257 0.111111 330.028C-0.99349 335.096 -1.88575 363.841 6 357z"/>
<path style="fill:#095a42; stroke:none;" d="M91 330L104 329C100.333 326.254 93.8049 326.028 91 330z"/>
<path style="fill:#65aebf; stroke:none;" d="M171 327L165 341L167 341C168.357 334.352 172.178 334.671 178 334L178 333L171 333L171 327z"/>
<path style="fill:#66b9be; stroke:none;" d="M207 328L209 332L212 331L207 328z"/>
<path style="fill:#1a3437; stroke:none;" d="M211 328L217 331L217 330L211 328z"/>
<path style="fill:#518b97; stroke:none;" d="M176 331L178 334C170.498 334.51 169.697 335.406 165 341L165 342L173 343L181 329L176 331z"/>
<path style="fill:#29686c; stroke:none;" d="M183 332L187 329L183 332z"/>
<path style="fill:#000000; stroke:none;" d="M348 329L349 330L348 329M347.333 330.667L347.667 331.333L347.333 330.667z"/>
<path style="fill:#87bc9a; stroke:none;" d="M210 331L214 336L212 332L216 332L210 331z"/>
<path style="fill:#53a383; stroke:none;" d="M212 332L214 338L217 338L212 332z"/>
<path style="fill:#dbeef2; stroke:none;" d="M215 332L215 333L220 336L215 332z"/>
<path style="fill:#1b6d68; stroke:none;" d="M220 333L221 340L229 340C228.554 334.254 225.345 333.249 220 333z"/>
<path style="fill:#0000ff; stroke:none;" d="M346 333L345 335L346 333z"/>
<path style="fill:#298c9d; stroke:none;" d="M47 334L47 335C65.5717 343.419 79.317 343.847 99 343L70 339.674L47 334z"/>
<path style="fill:#01adaf; stroke:none;" d="M133 334L130 337L130 335C121.483 340.344 129.643 347.7 136 351L133 345L150 346L150 345L133 339L133 334z"/>
<path style="fill:#1e4851; stroke:none;" d="M180 334L177 340C179.756 338.487 181.001 337.137 180 334z"/>
<path style="fill:#9bd1d5; stroke:none;" d="M217 334L220 339L217 334z"/>
<path style="fill:#2c5d69; stroke:none;" d="M158 337L165 342L165 335L158 337z"/>
<path style="fill:#cae8ed; stroke:none;" d="M185 335L183 339L185 335z"/>
<path style="fill:#8dc8d4; stroke:none;" d="M213 336L209 342C211.975 340.688 213.93 339.404 213 336z"/>
<path style="fill:#000000; stroke:none;" d="M343 337L339 342L343 337z"/>
<path style="fill:#1f5159; stroke:none;" d="M123 341L125 350L126 350L123 341z"/>
<path style="fill:#0a6e79; stroke:none;" d="M158 342L174 344L158 342z"/>
<path style="fill:#000000; stroke:none;" d="M337 342L338 343L337 342z"/>
<path style="fill:#80ffff; stroke:none;" d="M330 345L330 346L335 345L330 345z"/>
<path style="fill:#3cb0c4; stroke:none;" d="M133 345C141.527 365.979 171.96 353.198 186 364L244 356L244 355C206.918 357.926 169.3 351.739 133 345z"/>
<path style="fill:#00ffff; stroke:none;" d="M332.667 345.333L333.333 345.667L332.667 345.333M330.667 346.333L331.333 346.667L330.667 346.333z"/>
<path style="fill:#63b5c9; stroke:none;" d="M329 347L327 348L320 352L320 354L316 355L317 353L316 353L313 354L315 355L315 356L294 361L293 357L288 358L293 360L286 362L287 359L282 361L285 362L285 363L275 363L273 364L273 366L271 365L258 370L254 370L253 370L245 374L245 373L249 373C247.694 370.601 246.28 368.697 244 371C227.051 365.99 204.703 373.184 186.884 372.192C127.694 368.898 67.4883 371 8 371L8 376L331 376L331 347L329 347z"/>
<path style="fill:#000000; stroke:none;" d="M328 348L329 349L328 348M326 349L327 350L326 349z"/>
<path style="fill:#007f7f; stroke:none;" d="M104.667 350.333L105.333 350.667L104.667 350.333z"/>
<path style="fill:#00ffff; stroke:none;" d="M106 350L106 351L109 351L106 350z"/>
<path style="fill:#3c8290; stroke:none;" d="M126 350L138 359L137 361C148.683 366.464 162.142 368.991 175 369L175 368L169 367L169 366L188 367C184.584 358.847 171.517 360.95 164 360L164 361L178 365L152 361.275L126 350z"/>
<path style="fill:#00ffff; stroke:none;" d="M323.667 350.333L324.333 350.667L323.667 350.333z"/>
<path style="fill:#000000; stroke:none;" d="M325 350L326 351L325 350z"/>
<path style="fill:#0080bf; stroke:none;" d="M97 351L97 352L100 352L97 351z"/>
<path style="fill:#0000ff; stroke:none;" d="M102.667 351.333L103.333 351.667L102.667 351.333z"/>
<path style="fill:#000000; stroke:none;" d="M104 351L105 352L104 351z"/>
<path style="fill:#00ffff; stroke:none;" d="M92 352L92 353L97 353L92 352z"/>
<path style="fill:#000000; stroke:none;" d="M111 352L112 353L111 352M321 352L322 353L321 352z"/>
<path style="fill:#00ffff; stroke:none;" d="M88 353L88 354L91 354L88 353z"/>
<path style="fill:#000000; stroke:none;" d="M91 353L92 354L91 353z"/>
<path style="fill:#388087; stroke:none;" d="M137 354L137 355L154 358L137 354z"/>
<path style="fill:#000000; stroke:none;" d="M319 353L320 354L319 353z"/>
<path style="fill:#00ffff; stroke:none;" d="M120.667 354.333L121.333 354.667L120.667 354.333z"/>
<path style="fill:#0000ff; stroke:none;" d="M316 354L317 355L316 354z"/>
<path style="fill:#000000; stroke:none;" d="M317 354L318 355L317 354z"/>
<path style="fill:#0000ff; stroke:none;" d="M77 355L78 356L77 355z"/>
<path style="fill:#a2c4cb; stroke:none;" d="M137 355L137 356C144.944 360.186 153.101 362 162 362L137 355z"/>
<path style="fill:#80bfbf; stroke:none;" d="M294 356L295 360L301 355L294 356z"/>
<path style="fill:#00ffff; stroke:none;" d="M311 355L311 356L314 356L311 355z"/>
<path style="fill:#0000ff; stroke:none;" d="M314 355L315 356L314 355z"/>
<path style="fill:#00ffff; stroke:none;" d="M307.667 356.333L308.333 356.667L307.667 356.333z"/>
<path style="fill:#000000; stroke:none;" d="M309.667 356.333L310.333 356.667L309.667 356.333z"/>
<path style="fill:#96d8e6; stroke:none;" d="M6 357L0 358L0 371L38 371C35.9314 364.061 32.1327 364.478 27 361L16 362L11 358L6 357z"/>
<path style="fill:#80ffff; stroke:none;" d="M298 357L298 359L300 359L298 357z"/>
<path style="fill:#00ffff; stroke:none;" d="M304 357L304 358L307 358L304 357z"/>
<path style="fill:#69a0ab; stroke:none;" d="M151 358L151 359C154.296 359.346 160.44 359.174 161 363L177 364L164 361L166 360L151 358z"/>
<path style="fill:#1b7b7f; stroke:none;" d="M223 361L223 362L230 363L230 364L221 365L221 366L254 361C244.591 355.364 232.863 359.55 223 361z"/>
<path style="fill:#8080ff; stroke:none;" d="M294.333 358.667L294.667 359.333L294.333 358.667z"/>
<path style="fill:#00ffff; stroke:none;" d="M301.667 358.333L302.333 358.667L301.667 358.333z"/>
<path style="fill:#000000; stroke:none;" d="M303 358L304 359L303 358z"/>
<path style="fill:#00ffff; stroke:none;" d="M296 359L296 360L300 360L296 359z"/>
<path style="fill:#000000; stroke:none;" d="M300 359L301 360L300 359z"/>
<path style="fill:#808080; stroke:none;" d="M291.667 360.333L292.333 360.667L291.667 360.333z"/>
<path style="fill:#0000ff; stroke:none;" d="M294 360L295 361L294 360z"/>
<path style="fill:#000000; stroke:none;" d="M295 360L296 361L295 360z"/>
<path style="fill:#00ffff; stroke:none;" d="M286 361L286 362L290 362L286 361z"/>
<path style="fill:#0000ff; stroke:none;" d="M290 361L291 362L290 361z"/>
<path style="fill:#000000; stroke:none;" d="M291.667 361.333L292.333 361.667L291.667 361.333z"/>
<path style="fill:#377a85; stroke:none;" d="M206 364L206 365L221 364C215.849 361.261 211.339 362.587 206 364z"/>
<path style="fill:#7ec0ca; stroke:none;" d="M220 362C220 367.457 195.851 364 191 364L198 367L198 366L194 366L194 365L220 366L219 368L233 366L233 365L221 366L221 365L230 364L220 362z"/>
<path style="fill:#008080; stroke:none;" d="M277.667 362.333L278.333 362.667L277.667 362.333z"/>
<path style="fill:#00ffff; stroke:none;" d="M279.667 362.333L280.333 362.667L279.667 362.333z"/>
<path style="fill:#0000ff; stroke:none;" d="M281 362L281 363L284 363L281 362z"/>
<path style="fill:#000000; stroke:none;" d="M284 362L285 363L284 362z"/>
<path style="fill:#8cc0c8; stroke:none;" d="M171 363L171 364L178 365L171 363z"/>
<path style="fill:#008e8f; stroke:none;" d="M187 364L193 367L193 366L191 364L209 364C203.251 361.588 192.918 362.251 187 364z"/>
<path style="fill:#0000ff; stroke:none;" d="M276 363L277 364L276 363z"/>
<path style="fill:#000000; stroke:none;" d="M277 363L278 364L277 363z"/>
<path style="fill:#0000ff; stroke:none;" d="M274 364L275 365L274 364z"/>
<path style="fill:#a0d6d9; stroke:none;" d="M194 365L194 366L199 366L194 365z"/>
<path style="fill:#000000; stroke:none;" d="M272 365L273 366L272 365z"/>
<path style="fill:#278da2; stroke:none;" d="M169 366L169 367L177 367L177 368L170 369L170 370L198 371L198 370L195 370L195 369L207 369L206 367L211 367L193 366.961L169 366z"/>
<path style="fill:#80feff; stroke:none;" d="M267.667 366.333L268.333 366.667L267.667 366.333z"/>
<path style="fill:#00ffff; stroke:none;" d="M269.667 366.333L270.333 366.667L269.667 366.333z"/>
<path style="fill:#88bec8; stroke:none;" d="M171 367L171 368L177 368L171 367z"/>
<path style="fill:#82c9d7; stroke:none;" d="M206 367L206 368L216 369L206 367z"/>
<path style="fill:#00ffff; stroke:none;" d="M267.667 367.333L268.333 367.667L267.667 367.333z"/>
<path style="fill:#15868c; stroke:none;" d="M218 368L218 369L223 369L218 368z"/>
<path style="fill:#00ffff; stroke:none;" d="M264.667 368.333L265.333 368.667L264.667 368.333z"/>
<path style="fill:#0000ff; stroke:none;" d="M266 368L267 369L266 368z"/>
<path style="fill:#00ffff; stroke:none;" d="M260.667 369.333L261.333 369.667L260.667 369.333z"/>
<path style="fill:#0000ff; stroke:none;" d="M262 369L263 370L262 369z"/>
<path style="fill:#000000; stroke:none;" d="M263 369L264 370L263 369z"/>
<path style="fill:#0000ff; stroke:none;" d="M259 370L260 371L259 370z"/>
<path style="fill:#ffffff; stroke:none;" d="M0 371L0 377L220 377L220 376L8 376L8 371L0 371z"/>
<path style="fill:#0000ff; stroke:none;" d="M255.667 371.333L256.333 371.667L255.667 371.333z"/>
<path style="fill:#000000; stroke:none;" d="M257 371L258 372L257 371z"/>
<path style="fill:#0000ff; stroke:none;" d="M252.667 372.333L253.333 372.667L252.667 372.333z"/>
<path style="fill:#00ffff; stroke:none;" d="M245 373L245 374L248 374L245 373z"/>
<path style="fill:#0000ff; stroke:none;" d="M248 373L249 374L248 373z"/>
<path style="fill:#000000; stroke:none;" d="M249 373L250 374L249 373z"/>
<path style="fill:#00ffff; stroke:none;" d="M241 374L241 375L244 375L241 374z"/>
<path style="fill:#80ffff; stroke:none;" d="M233.667 375.333L234.333 375.667L233.667 375.333z"/>
<path style="fill:#00ffff; stroke:none;" d="M237.667 375.333L238.333 375.667L237.667 375.333z"/>
<path style="fill:#0000ff; stroke:none;" d="M239 375L240 376L239 375M220.667 376.333L221.333 376.667L220.667 376.333z"/>
<path style="fill:#ffffff; stroke:none;" d="M223 376L224 377L223 376z"/>
<path style="fill:#0000ff; stroke:none;" d="M224 376L225 377L224 376z"/>
<path style="fill:#ffffff; stroke:none;" d="M225 376L226 377L225 376M227 376L228 377L227 376M229 376L230 377L229 376z"/>
<path style="fill:#000000; stroke:none;" d="M230.667 376.333L231.333 376.667L230.667 376.333z"/>
</svg>
